<svg xmlns="http://www.w3.org/2000/svg" xmlns:xlink="http://www.w3.org/1999/xlink" viewBox="0 0 538 70" preserveAspectRatio="xMidYMid" width="538" height="70" style="display:block;shape-rendering:auto;background-position-x:0%;background-position-y:0%;background-size:auto;background-origin:padding-box;background-clip:border-box;background:scroll rgba(0, 0, 0, 0) none  repeat;width:538px;height:70px;;animation:none"><style type="text/css">.ld-text text {
    text-anchor: middle;
    dominant-baseline: middle;
    font-size: 61px;
    opacity: 0;
    user-select: none;
    pointer-events: none;
  }</style>


<g class="ld-text" style="transform-origin:269px 35px;transform:matrix(1, 0, 0, 1, 0, 0);;animation:none"><g transform="matrix(1,0,0,1,269,35)" style="transform:matrix(1, 0, 0, 1, 269, 35);;animation:none"><g transform="matrix(0.762499988079071,0,0,0.762499988079071,0,0)" style="transform:matrix(0.7625, 0, 0, 0.7625, 0, 0);;animation:none"><g class="path" style="animation-duration:1s;animation-timing-function:linear;animation-delay:-0.616s;animation-iteration-count:infinite;animation-direction:normal;animation-fill-mode:forwards;animation-play-state:paused;animation-name:animate-db7etrqksv;animation-timeline:auto;animation-range-start:normal;animation-range-end:normal;transform-box:view-box;transform-origin:-310.27px -3.13px;transform:matrix(1, 0, 0, 1, 0, 0);;animation:none"><path d="M50.98-7.31L50.98 54.41L45.90 54.41L40.04 44.61Q39.18 47.07 37.68 49.06Q36.17 51.05 34.20 52.48Q32.23 53.90 29.86 54.68Q27.50 55.46 24.88 55.46L24.88 55.46Q19.73 55.46 15.66 53.63Q11.60 51.79 8.79 48.61Q5.98 45.43 4.49 41.13Q3.01 36.83 3.01 31.91L3.01 31.91Q3.01 26.99 4.49 22.69Q5.98 18.39 8.79 15.23Q11.60 12.07 15.66 10.23Q19.73 8.39 24.88 8.39L24.88 8.39Q28.83 8.39 32.13 9.92Q35.43 11.44 37.77 14.68L37.77 14.68L37.77-7.31L50.98-7.31 zM37.70 31.91L37.70 31.91Q37.70 30.35 37.46 28.47Q37.23 26.60 36.72 24.68Q36.21 22.77 35.39 20.97Q34.57 19.18 33.38 17.77Q32.19 16.36 30.61 15.52Q29.02 14.68 26.99 14.68L26.99 14.68Q24.77 14.68 23.13 15.48Q21.48 16.28 20.31 17.63Q19.14 18.98 18.38 20.74Q17.62 22.50 17.19 24.41Q16.76 26.32 16.58 28.26Q16.41 30.19 16.41 31.91L16.41 31.91Q16.41 33.63 16.58 35.56Q16.76 37.50 17.19 39.41Q17.62 41.32 18.38 43.10Q19.14 44.88 20.31 46.23Q21.48 47.57 23.13 48.37Q24.77 49.18 26.99 49.18L26.99 49.18Q29.22 49.18 30.90 48.39Q32.58 47.61 33.77 46.27Q34.96 44.92 35.72 43.18Q36.48 41.44 36.91 39.51Q37.34 37.57 37.52 35.62Q37.70 33.67 37.70 31.91" transform="matrix(1,0,0,1,-337.2650146484375,-27.204999923706055)" style="fill:rgb(3, 126, 243);transform:matrix(1, 0, 0, 1, -337.265, -27.205);;animation:none"></path></g>
<g class="path" style="animation-duration:1s;animation-timing-function:linear;animation-delay:-0.572s;animation-iteration-count:infinite;animation-direction:normal;animation-fill-mode:forwards;animation-play-state:paused;animation-name:animate-db7etrqksv;animation-timeline:auto;animation-range-start:normal;animation-range-end:normal;transform-box:view-box;transform-origin:-254.88px 4.55px;transform:matrix(1, 0, 0, 1, 0, 0);;animation:none"><path d="M72.85 33L72.85 33Q75.27 33.55 77.70 33.86Q80.12 34.18 82.58 34.18L82.58 34.18Q85.16 34.18 87.36 33.69Q89.57 33.20 91.19 32.05Q92.81 30.89 93.75 28.98Q94.69 27.07 94.69 24.21L94.69 24.21Q94.69 21.91 94.06 20Q93.44 18.08 92.21 16.71Q90.98 15.35 89.18 14.59Q87.38 13.82 85 13.82L85 13.82Q82.77 13.82 81 14.64Q79.22 15.46 77.87 16.85Q76.52 18.24 75.57 20.07Q74.61 21.91 73.98 23.90Q73.36 25.89 73.09 27.93Q72.81 29.96 72.81 31.75L72.81 31.75Q72.81 32.07 72.81 32.38Q72.81 32.69 72.85 33 zM105.39 24.10L105.39 24.10Q105.39 26.87 104.49 29.04Q103.59 31.21 102.05 32.85Q100.51 34.49 98.48 35.62Q96.45 36.75 94.14 37.48Q91.84 38.20 89.39 38.51Q86.95 38.82 84.65 38.82L84.65 38.82Q81.72 38.82 78.87 38.41Q76.02 38 73.24 37.11L73.24 37.11Q73.67 39.68 74.61 42.01Q75.55 44.33 77.11 46.07Q78.67 47.81 80.96 48.82Q83.24 49.84 86.37 49.84L86.37 49.84Q88.44 49.84 90.31 49.21Q92.19 48.59 93.75 47.46Q95.31 46.32 96.50 44.76Q97.70 43.20 98.44 41.28L98.44 41.28L104.14 43.39Q102.85 46.48 100.61 48.73Q98.36 50.97 95.53 52.44Q92.70 53.90 89.51 54.61Q86.33 55.31 83.20 55.31L83.20 55.31Q78.05 55.31 73.67 53.57Q69.30 51.83 66.13 48.71Q62.97 45.58 61.17 41.25Q59.38 36.91 59.38 31.75L59.38 31.75Q59.38 26.60 61.17 22.26Q62.97 17.93 66.13 14.80Q69.30 11.68 73.67 9.94Q78.05 8.20 83.20 8.20L83.20 8.20Q85.70 8.20 88.32 8.55Q90.94 8.90 93.40 9.66Q95.86 10.43 98.05 11.64Q100.23 12.85 101.86 14.62Q103.48 16.40 104.43 18.75Q105.39 21.09 105.39 24.10" transform="matrix(1,0,0,1,-337.2650146484375,-27.204999923706055)" style="fill:rgb(248, 90, 64);transform:matrix(1, 0, 0, 1, -337.265, -27.205);;animation:none"></path></g>
<g class="path" style="animation-duration:1s;animation-timing-function:linear;animation-delay:-0.528s;animation-iteration-count:infinite;animation-direction:normal;animation-fill-mode:forwards;animation-play-state:paused;animation-name:animate-db7etrqksv;animation-timeline:auto;animation-range-start:normal;animation-range-end:normal;transform-box:view-box;transform-origin:-205.65px 4.55px;transform:matrix(1, 0, 0, 1, 0, 0);;animation:none"><path d="M152.46 40L152.46 40Q152.46 42.96 151.60 45.27Q150.74 47.57 149.26 49.27Q147.77 50.97 145.74 52.12Q143.71 53.28 141.39 53.98Q139.06 54.68 136.52 55Q133.98 55.31 131.48 55.31L131.48 55.31Q128.13 55.31 125.55 54.88Q122.97 54.45 120.63 53.49Q118.28 52.53 115.96 51.01Q113.63 49.49 110.78 47.30L110.78 47.30L118.48 41.01Q119.53 43 121.27 44.62Q123.01 46.25 124.88 47.42Q126.76 48.59 128.52 49.21Q130.27 49.84 131.37 49.84L131.37 49.84Q132.27 49.84 133.40 49.78Q134.53 49.72 135.70 49.55Q136.88 49.37 138.01 49.02Q139.14 48.67 140.02 48.06Q140.90 47.46 141.43 46.54Q141.95 45.62 141.95 44.33L141.95 44.33Q141.95 43 141.27 42.01Q140.59 41.01 139.49 40.27Q138.40 39.53 136.99 39.02Q135.59 38.51 134.16 38.12Q132.73 37.73 131.41 37.44Q130.08 37.14 129.10 36.87L129.10 36.87Q127.30 36.36 125.31 35.84Q123.32 35.31 121.37 34.62Q119.41 33.94 117.64 33Q115.86 32.07 114.51 30.76Q113.16 29.45 112.36 27.67Q111.56 25.89 111.56 23.51L111.56 23.51Q111.56 19.14 113.30 16.19Q115.04 13.24 117.89 11.46Q120.74 9.68 124.38 8.94Q128.01 8.20 131.76 8.20L131.76 8.20Q134.34 8.20 137.19 8.73Q140.04 9.25 142.73 10.29Q145.43 11.32 147.77 12.81Q150.12 14.29 151.68 16.21L151.68 16.21L143.98 22.53Q143.13 20.19 141.74 18.51Q140.35 16.83 138.73 15.76Q137.11 14.68 135.41 14.18Q133.71 13.67 132.27 13.67L132.27 13.67Q130.86 13.67 129.10 13.78Q127.34 13.90 125.80 14.45Q124.26 15 123.18 16.11Q122.11 17.22 122.11 19.18L122.11 19.18Q122.11 20.58 122.75 21.58Q123.40 22.57 124.45 23.30Q125.51 24.02 126.86 24.51Q128.20 25 129.61 25.37Q131.02 25.74 132.34 26.01Q133.67 26.28 134.73 26.60L134.73 26.60Q136.52 27.11 138.54 27.63Q140.55 28.16 142.50 28.84Q144.45 29.53 146.27 30.45Q148.09 31.36 149.45 32.69Q150.82 34.02 151.64 35.80Q152.46 37.57 152.46 40" transform="matrix(1,0,0,1,-337.2650146484375,-27.204999923706055)" style="fill:rgb(0, 181, 135);transform:matrix(1, 0, 0, 1, -337.265, -27.205);;animation:none"></path></g>
<g class="path" style="animation-duration:1s;animation-timing-function:linear;animation-delay:-0.484s;animation-iteration-count:infinite;animation-direction:normal;animation-fill-mode:forwards;animation-play-state:paused;animation-name:animate-db7etrqksv;animation-timeline:auto;animation-range-start:normal;animation-range-end:normal;transform-box:view-box;transform-origin:-156.1px 4.55px;transform:matrix(1, 0, 0, 1, 0, 0);;animation:none"><path d="M171.64 33L171.64 33Q174.06 33.55 176.48 33.86Q178.91 34.18 181.37 34.18L181.37 34.18Q183.95 34.18 186.15 33.69Q188.36 33.20 189.98 32.05Q191.60 30.89 192.54 28.98Q193.48 27.07 193.48 24.21L193.48 24.21Q193.48 21.91 192.85 20Q192.23 18.08 191 16.71Q189.77 15.35 187.97 14.59Q186.17 13.82 183.79 13.82L183.79 13.82Q181.56 13.82 179.79 14.64Q178.01 15.46 176.66 16.85Q175.31 18.24 174.36 20.07Q173.40 21.91 172.77 23.90Q172.15 25.89 171.88 27.93Q171.60 29.96 171.60 31.75L171.60 31.75Q171.60 32.07 171.60 32.38Q171.60 32.69 171.64 33 zM204.18 24.10L204.18 24.10Q204.18 26.87 203.28 29.04Q202.38 31.21 200.84 32.85Q199.30 34.49 197.27 35.62Q195.23 36.75 192.93 37.48Q190.63 38.20 188.18 38.51Q185.74 38.82 183.44 38.82L183.44 38.82Q180.51 38.82 177.66 38.41Q174.80 38 172.03 37.11L172.03 37.11Q172.46 39.68 173.40 42.01Q174.34 44.33 175.90 46.07Q177.46 47.81 179.75 48.82Q182.03 49.84 185.16 49.84L185.16 49.84Q187.23 49.84 189.10 49.21Q190.98 48.59 192.54 47.46Q194.10 46.32 195.29 44.76Q196.48 43.20 197.23 41.28L197.23 41.28L202.93 43.39Q201.64 46.48 199.39 48.73Q197.15 50.97 194.32 52.44Q191.48 53.90 188.30 54.61Q185.12 55.31 181.99 55.31L181.99 55.31Q176.84 55.31 172.46 53.57Q168.09 51.83 164.92 48.71Q161.76 45.58 159.96 41.25Q158.16 36.91 158.16 31.75L158.16 31.75Q158.16 26.60 159.96 22.26Q161.76 17.93 164.92 14.80Q168.09 11.68 172.46 9.94Q176.84 8.20 181.99 8.20L181.99 8.20Q184.49 8.20 187.11 8.55Q189.73 8.90 192.19 9.66Q194.65 10.43 196.84 11.64Q199.02 12.85 200.64 14.62Q202.27 16.40 203.22 18.75Q204.18 21.09 204.18 24.10" transform="matrix(1,0,0,1,-337.2650146484375,-27.204999923706055)" style="fill:rgb(10, 142, 160);transform:matrix(1, 0, 0, 1, -337.265, -27.205);;animation:none"></path></g>
<g class="path" style="animation-duration:1s;animation-timing-function:linear;animation-delay:-0.44s;animation-iteration-count:infinite;animation-direction:normal;animation-fill-mode:forwards;animation-play-state:paused;animation-name:animate-db7etrqksv;animation-timeline:auto;animation-range-start:normal;animation-range-end:normal;transform-box:view-box;transform-origin:-118.11px -28.79px;transform:matrix(1, 0, 0, 1, 0, 0);;animation:none"><path d="M226.37-1.61L226.37-1.61Q226.37-0.12 225.80 1.21Q225.23 2.53 224.26 3.51Q223.28 4.49 221.97 5.05Q220.66 5.62 219.18 5.62L219.18 5.62Q217.70 5.62 216.37 5.05Q215.04 4.49 214.06 3.51Q213.09 2.53 212.52 1.21Q211.95-0.12 211.95-1.61L211.95-1.61Q211.95-3.09 212.52-4.40Q213.09-5.71 214.06-6.68Q215.04-7.66 216.37-8.23Q217.70-8.79 219.18-8.79L219.18-8.79Q220.66-8.79 221.97-8.23Q223.28-7.66 224.26-6.68Q225.23-5.71 225.80-4.40Q226.37-3.09 226.37-1.61" transform="matrix(1,0,0,1,-337.2650146484375,-27.204999923706055)" style="fill:rgb(244, 137, 36);transform:matrix(1, 0, 0, 1, -337.265, -27.205);;animation:none"></path></g>
<g class="path" style="animation-duration:1s;animation-timing-function:linear;animation-delay:-0.396s;animation-iteration-count:infinite;animation-direction:normal;animation-fill-mode:forwards;animation-play-state:paused;animation-name:animate-db7etrqksv;animation-timeline:auto;animation-range-start:normal;animation-range-end:normal;transform-box:view-box;transform-origin:-122.09px 15.06px;transform:matrix(1, 0, 0, 1, 0, 0);;animation:none"><path d="M225.78 9.29L225.78 41.36Q225.78 46.01 224.61 50.80Q223.44 55.58 221.31 60.05Q219.18 64.53 216.23 68.45Q213.28 72.38 209.73 75.23L209.73 75.23L204.57 72.11Q206.56 69.37 208.05 65.91Q209.53 62.46 210.53 58.75Q211.52 55.04 212.03 51.27Q212.54 47.50 212.54 44.10L212.54 44.10L212.54 9.29L225.78 9.29" transform="matrix(1,0,0,1,-337.2650146484375,-27.204999923706055)" style="fill:rgb(190, 137, 13);transform:matrix(1, 0, 0, 1, -337.265, -27.205);;animation:none"></path></g>
<g class="path" style="animation-duration:1s;animation-timing-function:linear;animation-delay:-0.352s;animation-iteration-count:infinite;animation-direction:normal;animation-fill-mode:forwards;animation-play-state:paused;animation-name:animate-db7etrqksv;animation-timeline:auto;animation-range-start:normal;animation-range-end:normal;transform-box:view-box;transform-origin:-79.18px 4.55px;transform:matrix(1, 0, 0, 1, 0, 0);;animation:none"><path d="M282.07 9.29L282.07 54.41L268.87 54.41L268.87 49.02Q266.52 52.22 263.22 53.77Q259.92 55.31 255.98 55.31L255.98 55.31Q250.82 55.31 246.76 53.47Q242.70 51.64 239.88 48.45Q237.07 45.27 235.59 40.97Q234.10 36.68 234.10 31.75L234.10 31.75Q234.10 26.83 235.59 22.53Q237.07 18.24 239.88 15.05Q242.70 11.87 246.76 10.03Q250.82 8.20 255.98 8.20L255.98 8.20Q258.59 8.20 260.96 8.98Q263.32 9.76 265.29 11.19Q267.27 12.61 268.77 14.62Q270.27 16.64 271.13 19.10L271.13 19.10L276.99 9.29L282.07 9.29 zM268.79 31.75L268.79 31.75Q268.79 30 268.61 28.04Q268.44 26.09 268.01 24.18Q267.58 22.26 266.82 20.52Q266.05 18.78 264.86 17.44Q263.67 16.09 261.99 15.31Q260.31 14.53 258.09 14.53L258.09 14.53Q255.86 14.53 254.22 15.33Q252.58 16.13 251.41 17.48Q250.23 18.82 249.47 20.58Q248.71 22.34 248.28 24.25Q247.85 26.17 247.68 28.10Q247.50 30.03 247.50 31.75L247.50 31.75Q247.50 33.47 247.68 35.43Q247.85 37.38 248.28 39.29Q248.71 41.21 249.47 42.96Q250.23 44.72 251.41 46.07Q252.58 47.42 254.22 48.22Q255.86 49.02 258.09 49.02L258.09 49.02Q260.12 49.02 261.70 48.18Q263.28 47.34 264.47 45.93Q265.66 44.53 266.48 42.73Q267.30 40.93 267.81 39.02Q268.32 37.11 268.55 35.21Q268.79 33.32 268.79 31.75" transform="matrix(1,0,0,1,-337.2650146484375,-27.204999923706055)" style="fill:rgb(255, 86, 255);transform:matrix(1, 0, 0, 1, -337.265, -27.205);;animation:none"></path></g>
<g class="path" style="animation-duration:1s;animation-timing-function:linear;animation-delay:-0.308s;animation-iteration-count:infinite;animation-direction:normal;animation-fill-mode:forwards;animation-play-state:paused;animation-name:animate-db7etrqksv;animation-timeline:auto;animation-range-start:normal;animation-range-end:normal;transform-box:view-box;transform-origin:-21.11px 8.9px;transform:matrix(1, 0, 0, 1, 0, 0);;animation:none"><path d="M339.22 28.55L339.22 28.55Q339.22 33.12 338.11 38.08Q336.99 43.04 335 47.81Q333.01 52.57 330.23 56.77Q327.46 60.97 324.14 64.02L324.14 64.02L319.18 61.32Q320.23 59.37 321.17 56.95Q322.11 54.53 322.87 51.81Q323.63 49.10 324.24 46.21Q324.84 43.32 325.25 40.48Q325.66 37.65 325.88 34.98Q326.09 32.30 326.09 30L326.09 30Q326.09 28.47 325.98 26.73Q325.86 25 325.49 23.26Q325.12 21.52 324.49 19.92Q323.87 18.32 322.83 17.11Q321.80 15.89 320.33 15.15Q318.87 14.41 316.88 14.41L316.88 14.41Q314.92 14.41 313.40 15.29Q311.88 16.17 310.70 17.59Q309.53 19.02 308.69 20.86Q307.85 22.69 307.32 24.62Q306.80 26.56 306.56 28.43Q306.33 30.31 306.33 31.79L306.33 31.79L306.33 54.41L293.09 54.41L293.09 9.29L298.16 9.29L304.22 19.80Q305.31 17.18 306.95 15.03Q308.59 12.89 310.66 11.36Q312.73 9.84 315.25 9.02Q317.77 8.20 320.70 8.20L320.70 8.20Q325.39 8.20 328.87 9.72Q332.34 11.25 334.65 13.96Q336.95 16.68 338.09 20.41Q339.22 24.14 339.22 28.55" transform="matrix(1,0,0,1,-337.2650146484375,-27.204999923706055)" style="fill:rgb(101, 150, 0);transform:matrix(1, 0, 0, 1, -337.265, -27.205);;animation:none"></path></g>
<g class="path" style="animation-duration:1s;animation-timing-function:linear;animation-delay:-0.264s;animation-iteration-count:infinite;animation-direction:normal;animation-fill-mode:forwards;animation-play-state:paused;animation-name:animate-db7etrqksv;animation-timeline:auto;animation-range-start:normal;animation-range-end:normal;transform-box:view-box;transform-origin:32.15px -3.13px;transform:matrix(1, 0, 0, 1, 0, 0);;animation:none"><path d="M393.40-7.31L393.40 54.41L388.32 54.41L382.46 44.61Q381.60 47.07 380.10 49.06Q378.59 51.05 376.62 52.48Q374.65 53.90 372.29 54.68Q369.92 55.46 367.30 55.46L367.30 55.46Q362.15 55.46 358.09 53.63Q354.02 51.79 351.21 48.61Q348.40 45.43 346.91 41.13Q345.43 36.83 345.43 31.91L345.43 31.91Q345.43 26.99 346.91 22.69Q348.40 18.39 351.21 15.23Q354.02 12.07 358.09 10.23Q362.15 8.39 367.30 8.39L367.30 8.39Q371.25 8.39 374.55 9.92Q377.85 11.44 380.20 14.68L380.20 14.68L380.20-7.31L393.40-7.31 zM380.12 31.91L380.12 31.91Q380.12 30.35 379.88 28.47Q379.65 26.60 379.14 24.68Q378.63 22.77 377.81 20.97Q376.99 19.18 375.80 17.77Q374.61 16.36 373.03 15.52Q371.45 14.68 369.41 14.68L369.41 14.68Q367.19 14.68 365.55 15.48Q363.91 16.28 362.73 17.63Q361.56 18.98 360.80 20.74Q360.04 22.50 359.61 24.41Q359.18 26.32 359 28.26Q358.83 30.19 358.83 31.91L358.83 31.91Q358.83 33.63 359 35.56Q359.18 37.50 359.61 39.41Q360.04 41.32 360.80 43.10Q361.56 44.88 362.73 46.23Q363.91 47.57 365.55 48.37Q367.19 49.18 369.41 49.18L369.41 49.18Q371.64 49.18 373.32 48.39Q375 47.61 376.19 46.27Q377.38 44.92 378.14 43.18Q378.91 41.44 379.34 39.51Q379.77 37.57 379.94 35.62Q380.12 33.67 380.12 31.91" transform="matrix(1,0,0,1,-337.2650146484375,-27.204999923706055)" style="fill:rgb(251, 69, 115);transform:matrix(1, 0, 0, 1, -337.265, -27.205);;animation:none"></path></g>
<g class="path" style="animation-duration:1s;animation-timing-function:linear;animation-delay:-0.22s;animation-iteration-count:infinite;animation-direction:normal;animation-fill-mode:forwards;animation-play-state:paused;animation-name:animate-db7etrqksv;animation-timeline:auto;animation-range-start:normal;animation-range-end:normal;transform-box:view-box;transform-origin:89.63px 4.55px;transform:matrix(1, 0, 0, 1, 0, 0);;animation:none"><path d="M452.07 31.75L452.07 31.75Q452.07 35.27 451.13 38.36Q450.20 41.44 448.54 44.06Q446.88 46.68 444.53 48.77Q442.19 50.86 439.39 52.30Q436.60 53.75 433.42 54.53Q430.23 55.31 426.88 55.31L426.88 55.31Q423.52 55.31 420.35 54.53Q417.19 53.75 414.39 52.30Q411.60 50.86 409.26 48.77Q406.91 46.68 405.25 44.06Q403.59 41.44 402.66 38.34Q401.72 35.23 401.72 31.75L401.72 31.75Q401.72 28.28 402.66 25.17Q403.59 22.07 405.25 19.45Q406.91 16.83 409.26 14.74Q411.60 12.65 414.39 11.21Q417.19 9.76 420.35 8.98Q423.52 8.20 426.88 8.20L426.88 8.20Q430.23 8.20 433.42 8.98Q436.60 9.76 439.39 11.21Q442.19 12.65 444.53 14.74Q446.88 16.83 448.54 19.45Q450.20 22.07 451.13 25.17Q452.07 28.28 452.07 31.75 zM438.63 31.75L438.63 31.75Q438.63 29.88 438.42 27.79Q438.20 25.70 437.70 23.69Q437.19 21.68 436.31 19.82Q435.43 17.96 434.14 16.58Q432.85 15.19 431.05 14.35Q429.26 13.51 426.88 13.51L426.88 13.51Q424.61 13.51 422.85 14.37Q421.09 15.23 419.79 16.66Q418.48 18.08 417.60 19.96Q416.72 21.83 416.17 23.84Q415.63 25.86 415.39 27.91Q415.16 29.96 415.16 31.75L415.16 31.75Q415.16 33.55 415.39 35.60Q415.63 37.65 416.17 39.68Q416.72 41.71 417.60 43.57Q418.48 45.43 419.79 46.85Q421.09 48.28 422.85 49.14Q424.61 50 426.88 50L426.88 50Q429.22 50 431.02 49.16Q432.81 48.32 434.12 46.91Q435.43 45.50 436.29 43.67Q437.15 41.83 437.68 39.80Q438.20 37.77 438.42 35.70Q438.63 33.63 438.63 31.75" transform="matrix(1,0,0,1,-337.2650146484375,-27.204999923706055)" style="fill:rgb(3, 126, 243);transform:matrix(1, 0, 0, 1, -337.265, -27.205);;animation:none"></path></g>
<g class="path" style="animation-duration:1s;animation-timing-function:linear;animation-delay:-0.176s;animation-iteration-count:infinite;animation-direction:normal;animation-fill-mode:forwards;animation-play-state:paused;animation-name:animate-db7etrqksv;animation-timeline:auto;animation-range-start:normal;animation-range-end:normal;transform-box:view-box;transform-origin:163.73px 4.64px;transform:matrix(1, 0, 0, 1, 0, 0);;animation:none"><path d="M524.02 9.29L506.25 54.41L494.38 54.41L477.97 9.29L491.17 9.29L503.20 45.23L514.88 9.29L524.02 9.29" transform="matrix(1,0,0,1,-337.2650146484375,-27.204999923706055)" style="fill:rgb(248, 90, 64);transform:matrix(1, 0, 0, 1, -337.265, -27.205);;animation:none"></path></g>
<g class="path" style="animation-duration:1s;animation-timing-function:linear;animation-delay:-0.132s;animation-iteration-count:infinite;animation-direction:normal;animation-fill-mode:forwards;animation-play-state:paused;animation-name:animate-db7etrqksv;animation-timeline:auto;animation-range-start:normal;animation-range-end:normal;transform-box:view-box;transform-origin:213.93px 4.55px;transform:matrix(1, 0, 0, 1, 0, 0);;animation:none"><path d="M576.37 31.75L576.37 31.75Q576.37 35.27 575.43 38.36Q574.49 41.44 572.83 44.06Q571.17 46.68 568.83 48.77Q566.48 50.86 563.69 52.30Q560.90 53.75 557.71 54.53Q554.53 55.31 551.17 55.31L551.17 55.31Q547.81 55.31 544.65 54.53Q541.48 53.75 538.69 52.30Q535.90 50.86 533.55 48.77Q531.21 46.68 529.55 44.06Q527.89 41.44 526.95 38.34Q526.02 35.23 526.02 31.75L526.02 31.75Q526.02 28.28 526.95 25.17Q527.89 22.07 529.55 19.45Q531.21 16.83 533.55 14.74Q535.90 12.65 538.69 11.21Q541.48 9.76 544.65 8.98Q547.81 8.20 551.17 8.20L551.17 8.20Q554.53 8.20 557.71 8.98Q560.90 9.76 563.69 11.21Q566.48 12.65 568.83 14.74Q571.17 16.83 572.83 19.45Q574.49 22.07 575.43 25.17Q576.37 28.28 576.37 31.75 zM562.93 31.75L562.93 31.75Q562.93 29.88 562.71 27.79Q562.50 25.70 561.99 23.69Q561.48 21.68 560.61 19.82Q559.73 17.96 558.44 16.58Q557.15 15.19 555.35 14.35Q553.55 13.51 551.17 13.51L551.17 13.51Q548.91 13.51 547.15 14.37Q545.39 15.23 544.08 16.66Q542.77 18.08 541.89 19.96Q541.02 21.83 540.47 23.84Q539.92 25.86 539.69 27.91Q539.45 29.96 539.45 31.75L539.45 31.75Q539.45 33.55 539.69 35.60Q539.92 37.65 540.47 39.68Q541.02 41.71 541.89 43.57Q542.77 45.43 544.08 46.85Q545.39 48.28 547.15 49.14Q548.91 50 551.17 50L551.17 50Q553.52 50 555.31 49.16Q557.11 48.32 558.42 46.91Q559.73 45.50 560.59 43.67Q561.45 41.83 561.97 39.80Q562.50 37.77 562.71 35.70Q562.93 33.63 562.93 31.75" transform="matrix(1,0,0,1,-337.2650146484375,-27.204999923706055)" style="fill:rgb(0, 181, 135);transform:matrix(1, 0, 0, 1, -337.265, -27.205);;animation:none"></path></g>
<g class="path" style="animation-duration:1s;animation-timing-function:linear;animation-delay:-0.088s;animation-iteration-count:infinite;animation-direction:normal;animation-fill-mode:forwards;animation-play-state:paused;animation-name:animate-db7etrqksv;animation-timeline:auto;animation-range-start:normal;animation-range-end:normal;transform-box:view-box;transform-origin:266.93px 4.55px;transform:matrix(1, 0, 0, 1, 0, 0);;animation:none"><path d="M626.33 20.46L626.33 20.46L620.63 22.73Q619.26 18.43 616.05 16.13Q612.85 13.82 608.36 13.82L608.36 13.82Q605.94 13.82 604.04 14.59Q602.15 15.35 600.72 16.68Q599.30 18 598.30 19.76Q597.30 21.52 596.68 23.51Q596.05 25.50 595.78 27.63Q595.51 29.76 595.51 31.75L595.51 31.75Q595.51 33.90 595.74 36.09Q595.98 38.28 596.54 40.29Q597.11 42.30 598.05 44.04Q598.98 45.78 600.41 47.07Q601.84 48.36 603.81 49.10Q605.78 49.84 608.36 49.84L608.36 49.84Q610.43 49.84 612.30 49.21Q614.18 48.59 615.74 47.46Q617.30 46.32 618.52 44.76Q619.73 43.20 620.43 41.28L620.43 41.28L626.17 43.39Q624.88 46.48 622.75 48.73Q620.63 50.97 617.93 52.44Q615.23 53.90 612.15 54.61Q609.06 55.31 605.90 55.31L605.90 55.31Q600.78 55.31 596.41 53.57Q592.03 51.83 588.85 48.69Q585.66 45.54 583.87 41.23Q582.07 36.91 582.07 31.75L582.07 31.75Q582.07 26.56 583.85 22.22Q585.63 17.89 588.79 14.76Q591.95 11.64 596.33 9.92Q600.70 8.20 605.90 8.20L605.90 8.20Q609.18 8.20 612.30 8.92Q615.43 9.64 618.11 11.15Q620.78 12.65 622.91 14.96Q625.04 17.26 626.33 20.46" transform="matrix(1,0,0,1,-337.2650146484375,-27.204999923706055)" style="fill:rgb(10, 142, 160);transform:matrix(1, 0, 0, 1, -337.265, -27.205);;animation:none"></path></g>
<g class="path" style="animation-duration:1s;animation-timing-function:linear;animation-delay:-0.044s;animation-iteration-count:infinite;animation-direction:normal;animation-fill-mode:forwards;animation-play-state:paused;animation-name:animate-db7etrqksv;animation-timeline:auto;animation-range-start:normal;animation-range-end:normal;transform-box:view-box;transform-origin:317.26px 4.55px;transform:matrix(1, 0, 0, 1, 0, 0);;animation:none"><path d="M645 33L645 33Q647.42 33.55 649.84 33.86Q652.27 34.18 654.73 34.18L654.73 34.18Q657.30 34.18 659.51 33.69Q661.72 33.20 663.34 32.05Q664.96 30.89 665.90 28.98Q666.84 27.07 666.84 24.21L666.84 24.21Q666.84 21.91 666.21 20Q665.59 18.08 664.36 16.71Q663.13 15.35 661.33 14.59Q659.53 13.82 657.15 13.82L657.15 13.82Q654.92 13.82 653.14 14.64Q651.37 15.46 650.02 16.85Q648.67 18.24 647.71 20.07Q646.76 21.91 646.13 23.90Q645.51 25.89 645.23 27.93Q644.96 29.96 644.96 31.75L644.96 31.75Q644.96 32.07 644.96 32.38Q644.96 32.69 645 33 zM677.54 24.10L677.54 24.10Q677.54 26.87 676.64 29.04Q675.74 31.21 674.20 32.85Q672.66 34.49 670.63 35.62Q668.59 36.75 666.29 37.48Q663.98 38.20 661.54 38.51Q659.10 38.82 656.80 38.82L656.80 38.82Q653.87 38.82 651.02 38.41Q648.16 38 645.39 37.11L645.39 37.11Q645.82 39.68 646.76 42.01Q647.70 44.33 649.26 46.07Q650.82 47.81 653.11 48.82Q655.39 49.84 658.52 49.84L658.52 49.84Q660.59 49.84 662.46 49.21Q664.34 48.59 665.90 47.46Q667.46 46.32 668.65 44.76Q669.84 43.20 670.59 41.28L670.59 41.28L676.29 43.39Q675 46.48 672.75 48.73Q670.51 50.97 667.68 52.44Q664.84 53.90 661.66 54.61Q658.48 55.31 655.35 55.31L655.35 55.31Q650.20 55.31 645.82 53.57Q641.45 51.83 638.28 48.71Q635.12 45.58 633.32 41.25Q631.52 36.91 631.52 31.75L631.52 31.75Q631.52 26.60 633.32 22.26Q635.12 17.93 638.28 14.80Q641.45 11.68 645.82 9.94Q650.20 8.20 655.35 8.20L655.35 8.20Q657.85 8.20 660.47 8.55Q663.09 8.90 665.55 9.66Q668.01 10.43 670.20 11.64Q672.38 12.85 674 14.62Q675.63 16.40 676.58 18.75Q677.54 21.09 677.54 24.10" transform="matrix(1,0,0,1,-337.2650146484375,-27.204999923706055)" style="fill:rgb(244, 137, 36);transform:matrix(1, 0, 0, 1, -337.265, -27.205);;animation:none"></path></g>
<g class="path" style="animation-duration:1s;animation-timing-function:linear;animation-delay:0s;animation-iteration-count:infinite;animation-direction:normal;animation-fill-mode:forwards;animation-play-state:paused;animation-name:animate-db7etrqksv;animation-timeline:auto;animation-range-start:normal;animation-range-end:normal;transform-box:view-box;transform-origin:319.59px -29.96px;transform:matrix(1, 0, 0, 1, 0, 0);;animation:none"><path d="M659.38-9.69L667.15 4.18L657.38 4.18L654.84-1.22L652.27 4.18L646.56 4.18L654.10-9.69L659.38-9.69" transform="matrix(1,0,0,1,-337.2650146484375,-27.204999923706055)" style="fill:rgb(190, 137, 13);transform:matrix(1, 0, 0, 1, -337.265, -27.205);;animation:none"></path></g></g>
<text dy="0.35em" fill="#037ef3" font-family="Aclonica" font-size="61" style="fill:rgb(3, 126, 243);opacity:0;;animation:none">desejando você</text></g></g>
<STYLE type="text/css">@keyframes animate-db7etrqksv { 0.00% {animation-timing-function: cubic-bezier(0.33,0.00,0.67,0.00);transform: translate(0.00px,0.00px) rotate(0.00deg) scale(1.00, 1.00) skew(0deg, 0.00deg) ;opacity: 1.00;}50.00% {animation-timing-function: cubic-bezier(0.33,0.00,0.67,0.00);transform: translate(0.00px,0.00px) rotate(0.00deg) ;}100.00% {animation-timing-function: cubic-bezier(0.33,0.00,0.67,0.00);transform: translate(0.00px,0.00px) rotate(0.00deg) ;} }</STYLE><!-- [ldio] generated by https://loading.io --></svg>