<svg xmlns="http://www.w3.org/2000/svg" xmlns:xlink="http://www.w3.org/1999/xlink" viewBox="0 0 406 81" preserveAspectRatio="xMidYMid" width="406" height="81" style="display:block;shape-rendering:auto;background-position-x:0%;background-position-y:0%;background-size:auto;background-origin:padding-box;background-clip:border-box;background:scroll rgba(0, 0, 0, 0) none  repeat;width:406px;height:81px;;animation:none"><style type="text/css">.ld-text text {
    text-anchor: middle;
    dominant-baseline: middle;
    font-size: 61px;
    opacity: 0;
    user-select: none;
    pointer-events: none;
  }</style>


<g class="ld-text" style="transform-origin:203px 40.5px;transform:matrix(1, 0, 0, 1, 0, 0);;animation:none"><g transform="matrix(1,0,0,1,203,40.5)" style="transform:matrix(1, 0, 0, 1, 203, 40.5);;animation:none"><g transform="matrix(0.762499988079071,0,0,0.762499988079071,0,0)" style="transform:matrix(0.7625, 0, 0, 0.7625, 0, 0);;animation:none"><g class="path" style="animation-duration:1s;animation-timing-function:linear;animation-delay:-0.605s;animation-iteration-count:infinite;animation-direction:normal;animation-fill-mode:forwards;animation-play-state:paused;animation-name:animate-db7etrqksv;animation-timeline:auto;animation-range-start:normal;animation-range-end:normal;transform-box:view-box;transform-origin:-216px 3.79px;transform:matrix(1, 0, 0, 1, 0, 0);;animation:none"><path d="M33.67 25.28L26.21 52.70L14.34 52.70L1.99 7.58L15.20 7.58L22.93 39.22L29.38 7.58L41.25 7.58L49.14 40.08L56.76 7.58L65.90 7.58L52.23 52.70L40.35 52.70L33.67 25.28" transform="matrix(1,0,0,1,-249.94500732421875,-26.347999572753906)" style="fill:rgb(3, 126, 243);transform:matrix(1, 0, 0, 1, -249.945, -26.348);;animation:none"></path></g>
<g class="path" style="animation-duration:1s;animation-timing-function:linear;animation-delay:-0.55s;animation-iteration-count:infinite;animation-direction:normal;animation-fill-mode:forwards;animation-play-state:paused;animation-name:animate-db7etrqksv;animation-timeline:auto;animation-range-start:normal;animation-range-end:normal;transform-box:view-box;transform-origin:-170.67px -29.64px;transform:matrix(1, 0, 0, 1, 0, 0);;animation:none"><path d="M86.48-3.32L86.48-3.32Q86.48-1.83 85.92-0.50Q85.35 0.82 84.38 1.80Q83.40 2.78 82.07 3.34Q80.74 3.91 79.26 3.91L79.26 3.91Q77.77 3.91 76.46 3.34Q75.16 2.78 74.18 1.80Q73.20 0.82 72.64-0.50Q72.07-1.83 72.07-3.32L72.07-3.32Q72.07-4.80 72.64-6.11Q73.20-7.42 74.18-8.39Q75.16-9.37 76.46-9.94Q77.77-10.50 79.26-10.50L79.26-10.50Q80.74-10.50 82.07-9.94Q83.40-9.37 84.38-8.39Q85.35-7.42 85.92-6.11Q86.48-4.80 86.48-3.32" transform="matrix(1,0,0,1,-249.94500732421875,-26.347999572753906)" style="fill:rgb(248, 90, 64);transform:matrix(1, 0, 0, 1, -249.945, -26.348);;animation:none"></path></g>
<g class="path" style="animation-duration:1s;animation-timing-function:linear;animation-delay:-0.495s;animation-iteration-count:infinite;animation-direction:normal;animation-fill-mode:forwards;animation-play-state:paused;animation-name:animate-db7etrqksv;animation-timeline:auto;animation-range-start:normal;animation-range-end:normal;transform-box:view-box;transform-origin:-170.67px 3.81px;transform:matrix(1, 0, 0, 1, 0, 0);;animation:none"><path d="M85.90 7.62L85.90 52.70L72.66 52.70L72.66 7.62L85.90 7.62" transform="matrix(1,0,0,1,-249.94500732421875,-26.347999572753906)" style="fill:rgb(0, 181, 135);transform:matrix(1, 0, 0, 1, -249.945, -26.348);;animation:none"></path></g>
<g class="path" style="animation-duration:1s;animation-timing-function:linear;animation-delay:-0.44s;animation-iteration-count:infinite;animation-direction:normal;animation-fill-mode:forwards;animation-play-state:paused;animation-name:animate-db7etrqksv;animation-timeline:auto;animation-range-start:normal;animation-range-end:normal;transform-box:view-box;transform-origin:-135.01px 3.7px;transform:matrix(1, 0, 0, 1, 0, 0);;animation:none"><path d="M135.78 38.29L135.78 38.29Q135.78 41.25 134.92 43.56Q134.06 45.86 132.58 47.56Q131.09 49.26 129.06 50.41Q127.03 51.57 124.71 52.27Q122.38 52.97 119.84 53.29Q117.30 53.60 114.80 53.60L114.80 53.60Q111.45 53.60 108.87 53.17Q106.29 52.74 103.95 51.78Q101.60 50.82 99.28 49.30Q96.95 47.78 94.10 45.59L94.10 45.59L101.80 39.30Q102.85 41.29 104.59 42.91Q106.33 44.54 108.20 45.71Q110.08 46.88 111.84 47.50Q113.59 48.13 114.69 48.13L114.69 48.13Q115.59 48.13 116.72 48.07Q117.85 48.01 119.02 47.84Q120.20 47.66 121.33 47.31Q122.46 46.96 123.34 46.35Q124.22 45.75 124.75 44.83Q125.27 43.91 125.27 42.62L125.27 42.62Q125.27 41.29 124.59 40.30Q123.91 39.30 122.81 38.56Q121.72 37.82 120.31 37.31Q118.91 36.80 117.48 36.41Q116.05 36.02 114.73 35.73Q113.40 35.43 112.42 35.16L112.42 35.16Q110.63 34.65 108.63 34.13Q106.64 33.60 104.69 32.91Q102.73 32.23 100.96 31.29Q99.18 30.36 97.83 29.05Q96.48 27.74 95.68 25.96Q94.88 24.18 94.88 21.80L94.88 21.80Q94.88 17.43 96.62 14.48Q98.36 11.53 101.21 9.75Q104.06 7.97 107.70 7.23Q111.33 6.49 115.08 6.49L115.08 6.49Q117.66 6.49 120.51 7.02Q123.36 7.54 126.05 8.58Q128.75 9.61 131.09 11.10Q133.44 12.58 135 14.50L135 14.50L127.30 20.82Q126.45 18.48 125.06 16.80Q123.67 15.12 122.05 14.05Q120.43 12.97 118.73 12.47Q117.03 11.96 115.59 11.96L115.59 11.96Q114.18 11.96 112.42 12.07Q110.66 12.19 109.12 12.74Q107.58 13.29 106.50 14.40Q105.43 15.51 105.43 17.47L105.43 17.47Q105.43 18.87 106.07 19.87Q106.72 20.86 107.77 21.59Q108.83 22.31 110.18 22.80Q111.52 23.29 112.93 23.66Q114.34 24.03 115.66 24.30Q116.99 24.57 118.05 24.89L118.05 24.89Q119.84 25.40 121.86 25.92Q123.87 26.45 125.82 27.13Q127.77 27.82 129.59 28.74Q131.41 29.65 132.77 30.98Q134.14 32.31 134.96 34.09Q135.78 35.86 135.78 38.29" transform="matrix(1,0,0,1,-249.94500732421875,-26.347999572753906)" style="fill:rgb(10, 142, 160);transform:matrix(1, 0, 0, 1, -249.945, -26.348);;animation:none"></path></g>
<g class="path" style="animation-duration:1s;animation-timing-function:linear;animation-delay:-0.385s;animation-iteration-count:infinite;animation-direction:normal;animation-fill-mode:forwards;animation-play-state:paused;animation-name:animate-db7etrqksv;animation-timeline:auto;animation-range-start:normal;animation-range-end:normal;transform-box:view-box;transform-origin:-82.78px 0.3px;transform:matrix(1, 0, 0, 1, 0, 0);;animation:none"><path d="M190.23 26.84L190.23 26.84Q190.23 31.41 189.12 36.37Q188.01 41.33 186.02 46.10Q184.02 50.86 181.25 55.06Q178.48 59.26 175.16 62.31L175.16 62.31L170.20 59.61Q171.25 57.66 172.19 55.24Q173.13 52.82 173.89 50.10Q174.65 47.39 175.25 44.50Q175.86 41.61 176.27 38.77Q176.68 35.94 176.89 33.27Q177.11 30.59 177.11 28.29L177.11 28.29Q177.11 26.76 176.99 25.02Q176.88 23.29 176.50 21.55Q176.13 19.81 175.51 18.21Q174.88 16.61 173.85 15.40Q172.81 14.18 171.35 13.44Q169.88 12.70 167.89 12.70L167.89 12.70Q165.94 12.70 164.41 13.58Q162.89 14.46 161.72 15.88Q160.55 17.31 159.71 19.15Q158.87 20.98 158.34 22.91Q157.81 24.85 157.58 26.72Q157.34 28.60 157.34 30.08L157.34 30.08L157.34 52.70L144.10 52.70L144.10-9.02L157.30-9.02L157.30 14.22Q159.84 10.51 163.54 8.50Q167.23 6.49 171.72 6.49L171.72 6.49Q176.41 6.49 179.88 8.01Q183.36 9.54 185.66 12.25Q187.97 14.97 189.10 18.70Q190.23 22.43 190.23 26.84" transform="matrix(1,0,0,1,-249.94500732421875,-26.347999572753906)" style="fill:rgb(244, 137, 36);transform:matrix(1, 0, 0, 1, -249.945, -26.348);;animation:none"></path></g>
<g class="path" style="animation-duration:1s;animation-timing-function:linear;animation-delay:-0.33s;animation-iteration-count:infinite;animation-direction:normal;animation-fill-mode:forwards;animation-play-state:paused;animation-name:animate-db7etrqksv;animation-timeline:auto;animation-range-start:normal;animation-range-end:normal;transform-box:view-box;transform-origin:-44.34px -29.64px;transform:matrix(1, 0, 0, 1, 0, 0);;animation:none"><path d="M212.81-3.32L212.81-3.32Q212.81-1.83 212.25-0.50Q211.68 0.82 210.70 1.80Q209.73 2.78 208.40 3.34Q207.07 3.91 205.59 3.91L205.59 3.91Q204.10 3.91 202.79 3.34Q201.48 2.78 200.51 1.80Q199.53 0.82 198.96-0.50Q198.40-1.83 198.40-3.32L198.40-3.32Q198.40-4.80 198.96-6.11Q199.53-7.42 200.51-8.39Q201.48-9.37 202.79-9.94Q204.10-10.50 205.59-10.50L205.59-10.50Q207.07-10.50 208.40-9.94Q209.73-9.37 210.70-8.39Q211.68-7.42 212.25-6.11Q212.81-4.80 212.81-3.32" transform="matrix(1,0,0,1,-249.94500732421875,-26.347999572753906)" style="fill:rgb(190, 137, 13);transform:matrix(1, 0, 0, 1, -249.945, -26.348);;animation:none"></path></g>
<g class="path" style="animation-duration:1s;animation-timing-function:linear;animation-delay:-0.275s;animation-iteration-count:infinite;animation-direction:normal;animation-fill-mode:forwards;animation-play-state:paused;animation-name:animate-db7etrqksv;animation-timeline:auto;animation-range-start:normal;animation-range-end:normal;transform-box:view-box;transform-origin:-44.34px 3.81px;transform:matrix(1, 0, 0, 1, 0, 0);;animation:none"><path d="M212.23 7.62L212.23 52.70L198.98 52.70L198.98 7.62L212.23 7.62" transform="matrix(1,0,0,1,-249.94500732421875,-26.347999572753906)" style="fill:rgb(255, 86, 255);transform:matrix(1, 0, 0, 1, -249.945, -26.348);;animation:none"></path></g>
<g class="path" style="animation-duration:1s;animation-timing-function:linear;animation-delay:-0.22s;animation-iteration-count:infinite;animation-direction:normal;animation-fill-mode:forwards;animation-play-state:paused;animation-name:animate-db7etrqksv;animation-timeline:auto;animation-range-start:normal;animation-range-end:normal;transform-box:view-box;transform-origin:-3.6px 8.05px;transform:matrix(1, 0, 0, 1, 0, 0);;animation:none"><path d="M269.41 26.84L269.41 26.84Q269.41 31.41 268.30 36.37Q267.19 41.33 265.20 46.10Q263.20 50.86 260.43 55.06Q257.66 59.26 254.34 62.31L254.34 62.31L249.38 59.61Q250.43 57.66 251.37 55.24Q252.30 52.82 253.07 50.10Q253.83 47.39 254.43 44.50Q255.04 41.61 255.45 38.77Q255.86 35.94 256.07 33.27Q256.29 30.59 256.29 28.29L256.29 28.29Q256.29 26.76 256.17 25.02Q256.05 23.29 255.68 21.55Q255.31 19.81 254.69 18.21Q254.06 16.61 253.03 15.40Q251.99 14.18 250.53 13.44Q249.06 12.70 247.07 12.70L247.07 12.70Q245.12 12.70 243.59 13.58Q242.07 14.46 240.90 15.88Q239.73 17.31 238.89 19.15Q238.05 20.98 237.52 22.91Q236.99 24.85 236.76 26.72Q236.52 28.60 236.52 30.08L236.52 30.08L236.52 52.70L223.28 52.70L223.28 7.58L228.36 7.58L234.41 18.09Q235.51 15.47 237.15 13.32Q238.79 11.18 240.86 9.65Q242.93 8.13 245.45 7.31Q247.97 6.49 250.90 6.49L250.90 6.49Q255.59 6.49 259.06 8.01Q262.54 9.54 264.84 12.25Q267.15 14.97 268.28 18.70Q269.41 22.43 269.41 26.84" transform="matrix(1,0,0,1,-249.94500732421875,-26.347999572753906)" style="fill:rgb(101, 150, 0);transform:matrix(1, 0, 0, 1, -249.945, -26.348);;animation:none"></path></g>
<g class="path" style="animation-duration:1s;animation-timing-function:linear;animation-delay:-0.165s;animation-iteration-count:infinite;animation-direction:normal;animation-fill-mode:forwards;animation-play-state:paused;animation-name:animate-db7etrqksv;animation-timeline:auto;animation-range-start:normal;animation-range-end:normal;transform-box:view-box;transform-origin:49.62px 13.66px;transform:matrix(1, 0, 0, 1, 0, 0);;animation:none"><path d="M323.55 7.58L323.55 47.27Q323.55 52.66 321.95 57.43Q320.35 62.19 317.30 65.77Q314.26 69.34 309.82 71.43Q305.39 73.52 299.73 73.52L299.73 73.52Q296.60 73.52 293.42 72.82Q290.23 72.11 287.40 70.65Q284.57 69.18 282.32 66.94Q280.08 64.69 278.79 61.65L278.79 61.65L284.49 59.50Q285.23 61.41 286.43 63.01Q287.62 64.61 289.18 65.77Q290.74 66.92 292.62 67.56Q294.49 68.21 296.56 68.21L296.56 68.21Q300.47 68.21 303.11 66.61Q305.74 65 307.34 62.43Q308.95 59.85 309.65 56.59Q310.35 53.33 310.35 49.97L310.35 49.97L310.35 47.31Q308.01 50.51 304.71 52.06Q301.41 53.60 297.46 53.60L297.46 53.60Q292.30 53.60 288.24 51.76Q284.18 49.93 281.37 46.74Q278.55 43.56 277.07 39.26Q275.59 34.97 275.59 30.04L275.59 30.04Q275.59 25.12 277.07 20.82Q278.55 16.53 281.37 13.34Q284.18 10.16 288.24 8.32Q292.30 6.49 297.46 6.49L297.46 6.49Q300.08 6.49 302.44 7.27Q304.80 8.05 306.78 9.48Q308.75 10.90 310.25 12.91Q311.76 14.93 312.62 17.39L312.62 17.39L318.48 7.58L323.55 7.58 zM310.27 30.04L310.27 30.04Q310.27 28.29 310.10 26.33Q309.92 24.38 309.49 22.47Q309.06 20.55 308.30 18.81Q307.54 17.07 306.35 15.73Q305.16 14.38 303.48 13.60Q301.80 12.82 299.57 12.82L299.57 12.82Q297.34 12.82 295.70 13.62Q294.06 14.42 292.89 15.77Q291.72 17.11 290.96 18.87Q290.20 20.63 289.77 22.54Q289.34 24.46 289.16 26.39Q288.98 28.32 288.98 30.04L288.98 30.04Q288.98 31.76 289.16 33.72Q289.34 35.67 289.77 37.58Q290.20 39.50 290.96 41.25Q291.72 43.01 292.89 44.36Q294.06 45.71 295.70 46.51Q297.34 47.31 299.57 47.31L299.57 47.31Q301.60 47.31 303.18 46.47Q304.77 45.63 305.96 44.22Q307.15 42.82 307.97 41.02Q308.79 39.22 309.30 37.31Q309.80 35.40 310.04 33.50Q310.27 31.61 310.27 30.04" transform="matrix(1,0,0,1,-249.94500732421875,-26.347999572753906)" style="fill:rgb(251, 69, 115);transform:matrix(1, 0, 0, 1, -249.945, -26.348);;animation:none"></path></g>
<g class="path" style="animation-duration:1s;animation-timing-function:linear;animation-delay:-0.11s;animation-iteration-count:infinite;animation-direction:normal;animation-fill-mode:forwards;animation-play-state:paused;animation-name:animate-db7etrqksv;animation-timeline:auto;animation-range-start:normal;animation-range-end:normal;transform-box:view-box;transform-origin:124.64px 14.2px;transform:matrix(1, 0, 0, 1, 0, 0);;animation:none"><path d="M388.48 7.58L397.62 7.58L381.21 47.27Q378.40 54.07 374.94 60.73Q371.48 67.39 367.46 73.52L367.46 73.52L362.30 70.40Q363.28 68.64 364.61 66.33Q365.94 64.03 367.23 61.57Q368.52 59.11 369.61 56.70Q370.70 54.30 371.29 52.31L371.29 52.31L351.56 7.58L364.77 7.58L378.16 38.09L388.48 7.58" transform="matrix(1,0,0,1,-249.94500732421875,-26.347999572753906)" style="fill:rgb(3, 126, 243);transform:matrix(1, 0, 0, 1, -249.945, -26.348);;animation:none"></path></g>
<g class="path" style="animation-duration:1s;animation-timing-function:linear;animation-delay:-0.055s;animation-iteration-count:infinite;animation-direction:normal;animation-fill-mode:forwards;animation-play-state:paused;animation-name:animate-db7etrqksv;animation-timeline:auto;animation-range-start:normal;animation-range-end:normal;transform-box:view-box;transform-origin:174.61px 3.7px;transform:matrix(1, 0, 0, 1, 0, 0);;animation:none"><path d="M449.73 30.04L449.73 30.04Q449.73 33.56 448.79 36.65Q447.85 39.73 446.19 42.35Q444.53 44.97 442.19 47.06Q439.84 49.15 437.05 50.59Q434.26 52.04 431.07 52.82Q427.89 53.60 424.53 53.60L424.53 53.60Q421.17 53.60 418.01 52.82Q414.84 52.04 412.05 50.59Q409.26 49.15 406.91 47.06Q404.57 44.97 402.91 42.35Q401.25 39.73 400.31 36.63Q399.38 33.52 399.38 30.04L399.38 30.04Q399.38 26.57 400.31 23.46Q401.25 20.36 402.91 17.74Q404.57 15.12 406.91 13.03Q409.26 10.94 412.05 9.50Q414.84 8.05 418.01 7.27Q421.17 6.49 424.53 6.49L424.53 6.49Q427.89 6.49 431.07 7.27Q434.26 8.05 437.05 9.50Q439.84 10.94 442.19 13.03Q444.53 15.12 446.19 17.74Q447.85 20.36 448.79 23.46Q449.73 26.57 449.73 30.04 zM436.29 30.04L436.29 30.04Q436.29 28.17 436.07 26.08Q435.86 23.99 435.35 21.98Q434.84 19.97 433.96 18.11Q433.09 16.25 431.80 14.87Q430.51 13.48 428.71 12.64Q426.91 11.80 424.53 11.80L424.53 11.80Q422.27 11.80 420.51 12.66Q418.75 13.52 417.44 14.95Q416.13 16.37 415.25 18.25Q414.38 20.12 413.83 22.13Q413.28 24.15 413.05 26.20Q412.81 28.25 412.81 30.04L412.81 30.04Q412.81 31.84 413.05 33.89Q413.28 35.94 413.83 37.97Q414.38 40 415.25 41.86Q416.13 43.72 417.44 45.14Q418.75 46.57 420.51 47.43Q422.27 48.29 424.53 48.29L424.53 48.29Q426.88 48.29 428.67 47.45Q430.47 46.61 431.78 45.20Q433.09 43.79 433.95 41.96Q434.80 40.12 435.33 38.09Q435.86 36.06 436.07 33.99Q436.29 31.92 436.29 30.04" transform="matrix(1,0,0,1,-249.94500732421875,-26.347999572753906)" style="fill:rgb(248, 90, 64);transform:matrix(1, 0, 0, 1, -249.945, -26.348);;animation:none"></path></g>
<g class="path" style="animation-duration:1s;animation-timing-function:linear;animation-delay:0s;animation-iteration-count:infinite;animation-direction:normal;animation-fill-mode:forwards;animation-play-state:paused;animation-name:animate-db7etrqksv;animation-timeline:auto;animation-range-start:normal;animation-range-end:normal;transform-box:view-box;transform-origin:228.86px 4.32px;transform:matrix(1, 0, 0, 1, 0, 0);;animation:none"><path d="M455.74 33.40L455.74 33.40Q455.74 30.32 456.27 27Q456.80 23.68 457.79 20.36Q458.79 17.04 460.20 13.79Q461.60 10.55 463.36 7.58L463.36 7.58L473.01 7.58Q472.03 10.51 471.27 13.70Q470.51 16.88 469.98 20.06Q469.45 23.25 469.16 26.29Q468.87 29.34 468.87 31.96L468.87 31.96Q468.87 33.48 469 35.22Q469.14 36.96 469.49 38.70Q469.84 40.43 470.49 42.04Q471.13 43.64 472.15 44.87Q473.16 46.10 474.63 46.82Q476.09 47.54 478.09 47.54L478.09 47.54Q480.04 47.54 481.58 46.66Q483.13 45.79 484.30 44.36Q485.47 42.93 486.29 41.10Q487.11 39.26 487.64 37.33Q488.16 35.40 488.42 33.54Q488.67 31.68 488.67 30.20L488.67 30.20L488.67 7.58L501.88 7.58L501.88 52.70L496.80 52.70L490.74 42.19Q489.61 44.81 487.99 46.94Q486.37 49.07 484.30 50.59Q482.23 52.11 479.71 52.93Q477.19 53.75 474.26 53.75L474.26 53.75Q469.57 53.75 466.09 52.23Q462.62 50.71 460.31 48.01Q458.01 45.32 456.88 41.59Q455.74 37.86 455.74 33.40" transform="matrix(1,0,0,1,-249.94500732421875,-26.347999572753906)" style="fill:rgb(0, 181, 135);transform:matrix(1, 0, 0, 1, -249.945, -26.348);;animation:none"></path></g></g>
<text dy="0.35em" fill="#037ef3" font-family="Aclonica" font-size="61" style="fill:rgb(3, 126, 243);opacity:0;;animation:none">wishing you</text></g></g>
<STYLE type="text/css">@keyframes animate-db7etrqksv { 0.00% {animation-timing-function: cubic-bezier(0.33,0.00,0.67,0.00);transform: translate(0.00px,0.00px) rotate(0.00deg) scale(1.00, 1.00) skew(0deg, 0.00deg) ;opacity: 1.00;}50.00% {animation-timing-function: cubic-bezier(0.33,0.00,0.67,0.00);transform: translate(0.00px,0.00px) rotate(0.00deg) ;}100.00% {animation-timing-function: cubic-bezier(0.33,0.00,0.67,0.00);transform: translate(0.00px,0.00px) rotate(0.00deg) ;} }</STYLE><!-- [ldio] generated by https://loading.io --></svg>