<svg xmlns="http://www.w3.org/2000/svg" xmlns:xlink="http://www.w3.org/1999/xlink" viewBox="0 0 406 81" preserveAspectRatio="xMidYMid" width="406" height="81" style="display:block;shape-rendering:auto;background-position-x:0%;background-position-y:0%;background-size:auto;background-origin:padding-box;background-clip:border-box;background:scroll rgba(0, 0, 0, 0) none  repeat;width:406px;height:81px;;animation:none"><style type="text/css">.ld-text text {
    text-anchor: middle;
    dominant-baseline: middle;
    font-size: 61px;
    opacity: 0;
    user-select: none;
    pointer-events: none;
  }</style>


<g class="ld-text" style="transform-origin:203px 40.5px;transform:matrix(1, 0, 0, 1, 0, 0);;animation:none"><g transform="matrix(1,0,0,1,203,40.5)" style="transform:matrix(1, 0, 0, 1, 203, 40.5);;animation:none"><g transform="matrix(0.762499988079071,0,0,0.762499988079071,0,0)" style="transform:matrix(0.7625, 0, 0, 0.7625, 0, 0);;animation:none"><g class="path" style="animation-duration:1s;animation-timing-function:linear;animation-delay:-0.609231s;animation-iteration-count:infinite;animation-direction:normal;animation-fill-mode:forwards;animation-play-state:paused;animation-name:animate-db7etrqksv;animation-timeline:auto;animation-range-start:normal;animation-range-end:normal;transform-box:view-box;transform-origin:-228.38px 8.1px;transform:matrix(1, 0, 0, 1, 0, 0);;animation:none"><path d="M33.67 33.89L26.21 61.31L14.34 61.31L1.99 16.19L15.20 16.19L22.93 47.83L29.38 16.19L41.25 16.19L49.14 48.69L56.76 16.19L65.90 16.19L52.23 61.31L40.35 61.31L33.67 33.89" transform="matrix(1,0,0,1,-262.32501220703125,-30.65399932861328)" style="fill:rgb(3, 126, 243);transform:matrix(1, 0, 0, 1, -262.325, -30.654);;animation:none"></path></g>
<g class="path" style="animation-duration:1s;animation-timing-function:linear;animation-delay:-0.558462s;animation-iteration-count:infinite;animation-direction:normal;animation-fill-mode:forwards;animation-play-state:paused;animation-name:animate-db7etrqksv;animation-timeline:auto;animation-range-start:normal;animation-range-end:normal;transform-box:view-box;transform-origin:-169.53px 8.62px;transform:matrix(1, 0, 0, 1, 0, 0);;animation:none"><path d="M69.73 42.01L69.73 42.01Q69.73 38.93 70.25 35.61Q70.78 32.29 71.78 28.97Q72.77 25.65 74.18 22.40Q75.59 19.16 77.34 16.19L77.34 16.19L86.99 16.19Q86.02 19.12 85.25 22.31Q84.49 25.49 83.96 28.67Q83.44 31.86 83.14 34.90Q82.85 37.95 82.85 40.57L82.85 40.57Q82.85 42.09 82.99 43.83Q83.13 45.57 83.48 47.31Q83.83 49.04 84.47 50.65Q85.12 52.25 86.13 53.48Q87.15 54.71 88.61 55.43Q90.08 56.15 92.07 56.15L92.07 56.15Q94.02 56.15 95.57 55.27Q97.11 54.40 98.28 52.97Q99.45 51.54 100.27 49.71Q101.09 47.87 101.62 45.94Q102.15 44.01 102.40 42.15Q102.66 40.29 102.66 38.81L102.66 38.81L102.66 16.19L115.86 16.19L115.86 61.31L110.78 61.31L104.73 50.80Q103.59 53.42 101.97 55.55Q100.35 57.68 98.28 59.20Q96.21 60.72 93.69 61.54Q91.17 62.36 88.24 62.36L88.24 62.36Q83.55 62.36 80.08 60.84Q76.60 59.32 74.30 56.62Q71.99 53.93 70.86 50.20Q69.73 46.47 69.73 42.01" transform="matrix(1,0,0,1,-262.32501220703125,-30.65399932861328)" style="fill:rgb(248, 90, 64);transform:matrix(1, 0, 0, 1, -262.325, -30.654);;animation:none"></path></g>
<g class="path" style="animation-duration:1s;animation-timing-function:linear;animation-delay:-0.507692s;animation-iteration-count:infinite;animation-direction:normal;animation-fill-mode:forwards;animation-play-state:paused;animation-name:animate-db7etrqksv;animation-timeline:auto;animation-range-start:normal;animation-range-end:normal;transform-box:view-box;transform-origin:-159.65px -24.15px;transform:matrix(1, 0, 0, 1, 0, 0);;animation:none"><path d="M108.44 6.51L108.44 6.51Q108.44 7.68 107.99 8.73Q107.54 9.79 106.76 10.57Q105.98 11.35 104.92 11.80Q103.87 12.25 102.66 12.25L102.66 12.25Q101.48 12.25 100.43 11.80Q99.38 11.35 98.59 10.57Q97.81 9.79 97.36 8.73Q96.91 7.68 96.91 6.51L96.91 6.51Q96.91 5.33 97.36 4.28Q97.81 3.22 98.59 2.44Q99.38 1.66 100.43 1.21Q101.48 0.76 102.66 0.76L102.66 0.76Q103.87 0.76 104.92 1.21Q105.98 1.66 106.76 2.44Q107.54 3.22 107.99 4.28Q108.44 5.33 108.44 6.51" transform="matrix(1,0,0,1,-262.32501220703125,-30.65399932861328)" style="fill:rgb(0, 181, 135);transform:matrix(1, 0, 0, 1, -262.325, -30.654);;animation:none"></path></g>
<g class="path" style="animation-duration:1s;animation-timing-function:linear;animation-delay:-0.456923s;animation-iteration-count:infinite;animation-direction:normal;animation-fill-mode:forwards;animation-play-state:paused;animation-name:animate-db7etrqksv;animation-timeline:auto;animation-range-start:normal;animation-range-end:normal;transform-box:view-box;transform-origin:-174.38px -24.15px;transform:matrix(1, 0, 0, 1, 0, 0);;animation:none"><path d="M93.71 6.51L93.71 6.51Q93.71 7.68 93.26 8.73Q92.81 9.79 92.03 10.57Q91.25 11.35 90.20 11.80Q89.14 12.25 87.93 12.25L87.93 12.25Q86.76 12.25 85.70 11.80Q84.65 11.35 83.87 10.57Q83.09 9.79 82.64 8.73Q82.19 7.68 82.19 6.51L82.19 6.51Q82.19 5.33 82.64 4.28Q83.09 3.22 83.87 2.44Q84.65 1.66 85.70 1.21Q86.76 0.76 87.93 0.76L87.93 0.76Q89.14 0.76 90.20 1.21Q91.25 1.66 92.03 2.44Q92.81 3.22 93.26 4.28Q93.71 5.33 93.71 6.51" transform="matrix(1,0,0,1,-262.32501220703125,-30.65399932861328)" style="fill:rgb(10, 142, 160);transform:matrix(1, 0, 0, 1, -262.325, -30.654);;animation:none"></path></g>
<g class="path" style="animation-duration:1s;animation-timing-function:linear;animation-delay:-0.406154s;animation-iteration-count:infinite;animation-direction:normal;animation-fill-mode:forwards;animation-play-state:paused;animation-name:animate-db7etrqksv;animation-timeline:auto;animation-range-start:normal;animation-range-end:normal;transform-box:view-box;transform-origin:-112.38px 12.36px;transform:matrix(1, 0, 0, 1, 0, 0);;animation:none"><path d="M173.01 35.45L173.01 35.45Q173.01 40.02 171.89 44.98Q170.78 49.94 168.79 54.71Q166.80 59.47 164.02 63.67Q161.25 67.87 157.93 70.92L157.93 70.92L152.97 68.22Q154.02 66.27 154.96 63.85Q155.90 61.43 156.66 58.71Q157.42 56 158.03 53.11Q158.63 50.22 159.04 47.38Q159.45 44.55 159.67 41.88Q159.88 39.20 159.88 36.90L159.88 36.90Q159.88 35.37 159.77 33.63Q159.65 31.90 159.28 30.16Q158.91 28.42 158.28 26.82Q157.66 25.22 156.62 24.01Q155.59 22.79 154.12 22.05Q152.66 21.31 150.66 21.31L150.66 21.31Q148.71 21.31 147.19 22.19Q145.66 23.07 144.49 24.49Q143.32 25.92 142.48 27.76Q141.64 29.59 141.11 31.52Q140.59 33.46 140.35 35.33Q140.12 37.21 140.12 38.69L140.12 38.69L140.12 61.31L126.88 61.31L126.88 16.19L131.95 16.19L138.01 26.70Q139.10 24.08 140.74 21.93Q142.38 19.79 144.45 18.26Q146.52 16.74 149.04 15.92Q151.56 15.10 154.49 15.10L154.49 15.10Q159.18 15.10 162.66 16.62Q166.13 18.15 168.44 20.86Q170.74 23.58 171.88 27.31Q173.01 31.04 173.01 35.45" transform="matrix(1,0,0,1,-262.32501220703125,-30.65399932861328)" style="fill:rgb(244, 137, 36);transform:matrix(1, 0, 0, 1, -262.325, -30.654);;animation:none"></path></g>
<g class="path" style="animation-duration:1s;animation-timing-function:linear;animation-delay:-0.355385s;animation-iteration-count:infinite;animation-direction:normal;animation-fill-mode:forwards;animation-play-state:paused;animation-name:animate-db7etrqksv;animation-timeline:auto;animation-range-start:normal;animation-range-end:normal;transform-box:view-box;transform-origin:-62.62px 8px;transform:matrix(1, 0, 0, 1, 0, 0);;animation:none"><path d="M220.55 46.90L220.55 46.90Q220.55 49.86 219.69 52.17Q218.83 54.47 217.34 56.17Q215.86 57.87 213.83 59.02Q211.80 60.18 209.47 60.88Q207.15 61.58 204.61 61.90Q202.07 62.21 199.57 62.21L199.57 62.21Q196.21 62.21 193.63 61.78Q191.05 61.35 188.71 60.39Q186.37 59.43 184.04 57.91Q181.72 56.39 178.87 54.20L178.87 54.20L186.56 47.91Q187.62 49.90 189.36 51.52Q191.09 53.15 192.97 54.32Q194.84 55.49 196.60 56.11Q198.36 56.74 199.45 56.74L199.45 56.74Q200.35 56.74 201.48 56.68Q202.62 56.62 203.79 56.45Q204.96 56.27 206.09 55.92Q207.23 55.57 208.11 54.96Q208.98 54.36 209.51 53.44Q210.04 52.52 210.04 51.23L210.04 51.23Q210.04 49.90 209.36 48.91Q208.67 47.91 207.58 47.17Q206.48 46.43 205.08 45.92Q203.67 45.41 202.25 45.02Q200.82 44.63 199.49 44.34Q198.16 44.04 197.19 43.77L197.19 43.77Q195.39 43.26 193.40 42.74Q191.41 42.21 189.45 41.52Q187.50 40.84 185.72 39.90Q183.95 38.97 182.60 37.66Q181.25 36.35 180.45 34.57Q179.65 32.79 179.65 30.41L179.65 30.41Q179.65 26.04 181.39 23.09Q183.13 20.14 185.98 18.36Q188.83 16.58 192.46 15.84Q196.09 15.10 199.84 15.10L199.84 15.10Q202.42 15.10 205.27 15.63Q208.13 16.15 210.82 17.19Q213.52 18.22 215.86 19.71Q218.20 21.19 219.77 23.11L219.77 23.11L212.07 29.43Q211.21 27.09 209.82 25.41Q208.44 23.73 206.82 22.66Q205.20 21.58 203.50 21.08Q201.80 20.57 200.35 20.57L200.35 20.57Q198.95 20.57 197.19 20.68Q195.43 20.80 193.89 21.35Q192.34 21.90 191.27 23.01Q190.20 24.12 190.20 26.08L190.20 26.08Q190.20 27.48 190.84 28.48Q191.48 29.47 192.54 30.20Q193.59 30.92 194.94 31.41Q196.29 31.90 197.70 32.27Q199.10 32.64 200.43 32.91Q201.76 33.18 202.81 33.50L202.81 33.50Q204.61 34.01 206.62 34.53Q208.63 35.06 210.59 35.74Q212.54 36.43 214.36 37.35Q216.17 38.26 217.54 39.59Q218.91 40.92 219.73 42.70Q220.55 44.47 220.55 46.90" transform="matrix(1,0,0,1,-262.32501220703125,-30.65399932861328)" style="fill:rgb(190, 137, 13);transform:matrix(1, 0, 0, 1, -262.325, -30.654);;animation:none"></path></g>
<g class="path" style="animation-duration:1s;animation-timing-function:linear;animation-delay:-0.304615s;animation-iteration-count:infinite;animation-direction:normal;animation-fill-mode:forwards;animation-play-state:paused;animation-name:animate-db7etrqksv;animation-timeline:auto;animation-range-start:normal;animation-range-end:normal;transform-box:view-box;transform-origin:-13.95px 8px;transform:matrix(1, 0, 0, 1, 0, 0);;animation:none"><path d="M270.51 27.36L270.51 27.36L264.80 29.63Q263.44 25.33 260.23 23.03Q257.03 20.72 252.54 20.72L252.54 20.72Q250.12 20.72 248.22 21.49Q246.33 22.25 244.90 23.58Q243.48 24.90 242.48 26.66Q241.48 28.42 240.86 30.41Q240.23 32.40 239.96 34.53Q239.69 36.66 239.69 38.65L239.69 38.65Q239.69 40.80 239.92 42.99Q240.16 45.18 240.72 47.19Q241.29 49.20 242.23 50.94Q243.16 52.68 244.59 53.97Q246.02 55.26 247.99 56Q249.96 56.74 252.54 56.74L252.54 56.74Q254.61 56.74 256.48 56.11Q258.36 55.49 259.92 54.36Q261.48 53.22 262.70 51.66Q263.91 50.10 264.61 48.18L264.61 48.18L270.35 50.29Q269.06 53.38 266.93 55.63Q264.80 57.87 262.11 59.34Q259.41 60.80 256.33 61.51Q253.24 62.21 250.08 62.21L250.08 62.21Q244.96 62.21 240.59 60.47Q236.21 58.73 233.03 55.59Q229.84 52.44 228.05 48.13Q226.25 43.81 226.25 38.65L226.25 38.65Q226.25 33.46 228.03 29.12Q229.80 24.79 232.97 21.66Q236.13 18.54 240.51 16.82Q244.88 15.10 250.08 15.10L250.08 15.10Q253.36 15.10 256.48 15.82Q259.61 16.54 262.29 18.05Q264.96 19.55 267.09 21.86Q269.22 24.16 270.51 27.36" transform="matrix(1,0,0,1,-262.32501220703125,-30.65399932861328)" style="fill:rgb(255, 86, 255);transform:matrix(1, 0, 0, 1, -262.325, -30.654);;animation:none"></path></g>
<g class="path" style="animation-duration:1s;animation-timing-function:linear;animation-delay:-0.253846s;animation-iteration-count:infinite;animation-direction:normal;animation-fill-mode:forwards;animation-play-state:paused;animation-name:animate-db7etrqksv;animation-timeline:auto;animation-range-start:normal;animation-range-end:normal;transform-box:view-box;transform-origin:39.06px 4.6px;transform:matrix(1, 0, 0, 1, 0, 0);;animation:none"><path d="M324.45 35.45L324.45 35.45Q324.45 40.02 323.34 44.98Q322.23 49.94 320.23 54.71Q318.24 59.47 315.47 63.67Q312.70 67.87 309.38 70.92L309.38 70.92L304.41 68.22Q305.47 66.27 306.41 63.85Q307.34 61.43 308.11 58.71Q308.87 56 309.47 53.11Q310.08 50.22 310.49 47.38Q310.90 44.55 311.11 41.88Q311.33 39.20 311.33 36.90L311.33 36.90Q311.33 35.37 311.21 33.63Q311.09 31.90 310.72 30.16Q310.35 28.42 309.73 26.82Q309.10 25.22 308.07 24.01Q307.03 22.79 305.57 22.05Q304.10 21.31 302.11 21.31L302.11 21.31Q300.16 21.31 298.63 22.19Q297.11 23.07 295.94 24.49Q294.77 25.92 293.93 27.76Q293.09 29.59 292.56 31.52Q292.03 33.46 291.80 35.33Q291.56 37.21 291.56 38.69L291.56 38.69L291.56 61.31L278.32 61.31L278.32-0.41L291.52-0.41L291.52 22.83Q294.06 19.12 297.75 17.11Q301.45 15.10 305.94 15.10L305.94 15.10Q310.63 15.10 314.10 16.62Q317.58 18.15 319.88 20.86Q322.19 23.58 323.32 27.31Q324.45 31.04 324.45 35.45" transform="matrix(1,0,0,1,-262.32501220703125,-30.65399932861328)" style="fill:rgb(101, 150, 0);transform:matrix(1, 0, 0, 1, -262.325, -30.654);;animation:none"></path></g>
<g class="path" style="animation-duration:1s;animation-timing-function:linear;animation-delay:-0.203077s;animation-iteration-count:infinite;animation-direction:normal;animation-fill-mode:forwards;animation-play-state:paused;animation-name:animate-db7etrqksv;animation-timeline:auto;animation-range-start:normal;animation-range-end:normal;transform-box:view-box;transform-origin:91.23px 8px;transform:matrix(1, 0, 0, 1, 0, 0);;animation:none"><path d="M344.02 39.90L344.02 39.90Q346.45 40.45 348.87 40.76Q351.29 41.08 353.75 41.08L353.75 41.08Q356.33 41.08 358.54 40.59Q360.74 40.10 362.36 38.95Q363.98 37.79 364.92 35.88Q365.86 33.97 365.86 31.11L365.86 31.11Q365.86 28.81 365.23 26.90Q364.61 24.98 363.38 23.61Q362.15 22.25 360.35 21.49Q358.55 20.72 356.17 20.72L356.17 20.72Q353.95 20.72 352.17 21.54Q350.39 22.36 349.04 23.75Q347.70 25.14 346.74 26.97Q345.78 28.81 345.16 30.80Q344.53 32.79 344.26 34.83Q343.98 36.86 343.98 38.65L343.98 38.65Q343.98 38.97 343.98 39.28Q343.98 39.59 344.02 39.90 zM376.56 31L376.56 31Q376.56 33.77 375.66 35.94Q374.77 38.11 373.22 39.75Q371.68 41.39 369.65 42.52Q367.62 43.65 365.31 44.38Q363.01 45.10 360.57 45.41Q358.13 45.72 355.82 45.72L355.82 45.72Q352.89 45.72 350.04 45.31Q347.19 44.90 344.41 44.01L344.41 44.01Q344.84 46.58 345.78 48.91Q346.72 51.23 348.28 52.97Q349.84 54.71 352.13 55.72Q354.41 56.74 357.54 56.74L357.54 56.74Q359.61 56.74 361.48 56.11Q363.36 55.49 364.92 54.36Q366.48 53.22 367.68 51.66Q368.87 50.10 369.61 48.18L369.61 48.18L375.31 50.29Q374.02 53.38 371.78 55.63Q369.53 57.87 366.70 59.34Q363.87 60.80 360.68 61.51Q357.50 62.21 354.38 62.21L354.38 62.21Q349.22 62.21 344.84 60.47Q340.47 58.73 337.30 55.61Q334.14 52.48 332.34 48.15Q330.55 43.81 330.55 38.65L330.55 38.65Q330.55 33.50 332.34 29.16Q334.14 24.83 337.30 21.70Q340.47 18.58 344.84 16.84Q349.22 15.10 354.38 15.10L354.38 15.10Q356.88 15.10 359.49 15.45Q362.11 15.80 364.57 16.56Q367.03 17.33 369.22 18.54Q371.41 19.75 373.03 21.52Q374.65 23.30 375.61 25.65Q376.56 27.99 376.56 31" transform="matrix(1,0,0,1,-262.32501220703125,-30.65399932861328)" style="fill:rgb(251, 69, 115);transform:matrix(1, 0, 0, 1, -262.325, -30.654);;animation:none"></path></g>
<g class="path" style="animation-duration:1s;animation-timing-function:linear;animation-delay:-0.152308s;animation-iteration-count:infinite;animation-direction:normal;animation-fill-mode:forwards;animation-play-state:paused;animation-name:animate-db7etrqksv;animation-timeline:auto;animation-range-start:normal;animation-range-end:normal;transform-box:view-box;transform-origin:166.62px 0.32px;transform:matrix(1, 0, 0, 1, 0, 0);;animation:none"><path d="M452.93-0.41L452.93 61.31L447.85 61.31L441.99 51.51Q441.13 53.97 439.63 55.96Q438.13 57.95 436.15 59.38Q434.18 60.80 431.82 61.58Q429.45 62.36 426.84 62.36L426.84 62.36Q421.68 62.36 417.62 60.53Q413.55 58.69 410.74 55.51Q407.93 52.33 406.45 48.03Q404.96 43.73 404.96 38.81L404.96 38.81Q404.96 33.89 406.45 29.59Q407.93 25.29 410.74 22.13Q413.55 18.97 417.62 17.13Q421.68 15.29 426.84 15.29L426.84 15.29Q430.78 15.29 434.08 16.82Q437.38 18.34 439.73 21.58L439.73 21.58L439.73-0.41L452.93-0.41 zM439.65 38.81L439.65 38.81Q439.65 37.25 439.41 35.37Q439.18 33.50 438.67 31.58Q438.16 29.67 437.34 27.87Q436.52 26.08 435.33 24.67Q434.14 23.26 432.56 22.42Q430.98 21.58 428.95 21.58L428.95 21.58Q426.72 21.58 425.08 22.38Q423.44 23.18 422.27 24.53Q421.09 25.88 420.33 27.64Q419.57 29.40 419.14 31.31Q418.71 33.22 418.54 35.16Q418.36 37.09 418.36 38.81L418.36 38.81Q418.36 40.53 418.54 42.46Q418.71 44.40 419.14 46.31Q419.57 48.22 420.33 50Q421.09 51.78 422.27 53.13Q423.44 54.47 425.08 55.27Q426.72 56.08 428.95 56.08L428.95 56.08Q431.17 56.08 432.85 55.29Q434.53 54.51 435.72 53.17Q436.91 51.82 437.68 50.08Q438.44 48.34 438.87 46.41Q439.30 44.47 439.47 42.52Q439.65 40.57 439.65 38.81" transform="matrix(1,0,0,1,-262.32501220703125,-30.65399932861328)" style="fill:rgb(3, 126, 243);transform:matrix(1, 0, 0, 1, -262.325, -30.654);;animation:none"></path></g>
<g class="path" style="animation-duration:1s;animation-timing-function:linear;animation-delay:-0.101538s;animation-iteration-count:infinite;animation-direction:normal;animation-fill-mode:forwards;animation-play-state:paused;animation-name:animate-db7etrqksv;animation-timeline:auto;animation-range-start:normal;animation-range-end:normal;transform-box:view-box;transform-origin:208.28px -25.34px;transform:matrix(1, 0, 0, 1, 0, 0);;animation:none"><path d="M477.81 5.29L477.81 5.29Q477.81 6.78 477.25 8.11Q476.68 9.43 475.70 10.41Q474.73 11.39 473.40 11.95Q472.07 12.52 470.59 12.52L470.59 12.52Q469.10 12.52 467.79 11.95Q466.48 11.39 465.51 10.41Q464.53 9.43 463.96 8.11Q463.40 6.78 463.40 5.29L463.40 5.29Q463.40 3.81 463.96 2.50Q464.53 1.19 465.51 0.22Q466.48-0.76 467.79-1.33Q469.10-1.89 470.59-1.89L470.59-1.89Q472.07-1.89 473.40-1.33Q474.73-0.76 475.70 0.22Q476.68 1.19 477.25 2.50Q477.81 3.81 477.81 5.29" transform="matrix(1,0,0,1,-262.32501220703125,-30.65399932861328)" style="fill:rgb(248, 90, 64);transform:matrix(1, 0, 0, 1, -262.325, -30.654);;animation:none"></path></g>
<g class="path" style="animation-duration:1s;animation-timing-function:linear;animation-delay:-0.0507692s;animation-iteration-count:infinite;animation-direction:normal;animation-fill-mode:forwards;animation-play-state:paused;animation-name:animate-db7etrqksv;animation-timeline:auto;animation-range-start:normal;animation-range-end:normal;transform-box:view-box;transform-origin:208.28px 8.12px;transform:matrix(1, 0, 0, 1, 0, 0);;animation:none"><path d="M477.23 16.23L477.23 61.31L463.98 61.31L463.98 16.23L477.23 16.23" transform="matrix(1,0,0,1,-262.32501220703125,-30.65399932861328)" style="fill:rgb(0, 181, 135);transform:matrix(1, 0, 0, 1, -262.325, -30.654);;animation:none"></path></g>
<g class="path" style="animation-duration:1s;animation-timing-function:linear;animation-delay:0s;animation-iteration-count:infinite;animation-direction:normal;animation-fill-mode:forwards;animation-play-state:paused;animation-name:animate-db7etrqksv;animation-timeline:auto;animation-range-start:normal;animation-range-end:normal;transform-box:view-box;transform-origin:245.13px 7.55px;transform:matrix(1, 0, 0, 1, 0, 0);;animation:none"><path d="M526.64 20.18L526.64 20.18L519.22 32.48Q518.75 30.92 518.01 28.97Q517.27 27.01 516.17 25.31Q515.08 23.61 513.55 22.46Q512.03 21.31 510.04 21.31L510.04 21.31Q508.20 21.31 506.86 22.25Q505.51 23.18 504.57 24.69Q503.63 26.19 503.03 28.09Q502.42 29.98 502.09 31.92Q501.76 33.85 501.64 35.63Q501.52 37.40 501.52 38.69L501.52 38.69L501.52 61.31L488.28 61.31L488.28 16.19L493.36 16.19L498.71 26.70Q499.80 24.16 501.21 22.03Q502.62 19.90 504.45 18.36Q506.29 16.82 508.61 15.96Q510.94 15.10 513.87 15.10L513.87 15.10Q515.39 15.10 517.27 15.35Q519.14 15.61 520.94 16.21Q522.73 16.82 524.26 17.79Q525.78 18.77 526.64 20.18" transform="matrix(1,0,0,1,-262.32501220703125,-30.65399932861328)" style="fill:rgb(10, 142, 160);transform:matrix(1, 0, 0, 1, -262.325, -30.654);;animation:none"></path></g></g>
<text dy="0.35em" fill="#037ef3" font-family="Aclonica" font-size="61" style="fill:rgb(3, 126, 243);opacity:0;;animation:none">wünsche dir</text></g></g>
<STYLE type="text/css">@keyframes animate-db7etrqksv { 0.00% {animation-timing-function: cubic-bezier(0.33,0.00,0.67,0.00);transform: translate(0.00px,0.00px) rotate(0.00deg) scale(1.00, 1.00) skew(0deg, 0.00deg) ;opacity: 1.00;}50.00% {animation-timing-function: cubic-bezier(0.33,0.00,0.67,0.00);transform: translate(0.00px,0.00px) rotate(0.00deg) ;}100.00% {animation-timing-function: cubic-bezier(0.33,0.00,0.67,0.00);transform: translate(0.00px,0.00px) rotate(0.00deg) ;} }</STYLE><!-- [ldio] generated by https://loading.io --></svg>