<svg xmlns="http://www.w3.org/2000/svg" xmlns:xlink="http://www.w3.org/1999/xlink" viewBox="0 0 472 70" preserveAspectRatio="xMidYMid" width="472" height="70" style="display:block;shape-rendering:auto;background-position-x:0%;background-position-y:0%;background-size:auto;background-origin:padding-box;background-clip:border-box;background:scroll rgba(0, 0, 0, 0) none  repeat;width:472px;height:70px;;animation:none"><style type="text/css">.ld-text text {
    text-anchor: middle;
    dominant-baseline: middle;
    font-size: 61px;
    opacity: 0;
    user-select: none;
    pointer-events: none;
  }</style>


<g class="ld-text" style="transform-origin:236px 35px;transform:matrix(1, 0, 0, 1, 0, 0);;animation:none"><g transform="matrix(1,0,0,1,236,35)" style="transform:matrix(1, 0, 0, 1, 236, 35);;animation:none"><g transform="matrix(0.762499988079071,0,0,0.762499988079071,0,0)" style="transform:matrix(0.7625, 0, 0, 0.7625, 0, 0);;animation:none"><g class="path" style="animation-duration:1s;animation-timing-function:linear;animation-delay:-0.609231s;animation-iteration-count:infinite;animation-direction:normal;animation-fill-mode:forwards;animation-play-state:paused;animation-name:animate-db7etrqksv;animation-timeline:auto;animation-range-start:normal;animation-range-end:normal;transform-box:view-box;transform-origin:-278.12px 3.44px;transform:matrix(1, 0, 0, 1, 0, 0);;animation:none"><path d="M46.48 6.88L28.71 52L16.84 52L0.43 6.88L13.63 6.88L25.66 42.82L37.34 6.88L46.48 6.88" transform="matrix(1,0,0,1,-301.5799865722656,-26.000999450683594)" style="fill:rgb(3, 126, 243);transform:matrix(1, 0, 0, 1, -301.58, -26.001);;animation:none"></path></g>
<g class="path" style="animation-duration:1s;animation-timing-function:linear;animation-delay:-0.558462s;animation-iteration-count:infinite;animation-direction:normal;animation-fill-mode:forwards;animation-play-state:paused;animation-name:animate-db7etrqksv;animation-timeline:auto;animation-range-start:normal;animation-range-end:normal;transform-box:view-box;transform-origin:-227.92px 3.34px;transform:matrix(1, 0, 0, 1, 0, 0);;animation:none"><path d="M98.83 29.34L98.83 29.34Q98.83 32.86 97.89 35.95Q96.95 39.03 95.29 41.65Q93.63 44.27 91.29 46.36Q88.95 48.45 86.15 49.89Q83.36 51.34 80.18 52.12Q76.99 52.90 73.63 52.90L73.63 52.90Q70.27 52.90 67.11 52.12Q63.95 51.34 61.15 49.89Q58.36 48.45 56.02 46.36Q53.67 44.27 52.01 41.65Q50.35 39.03 49.41 35.93Q48.48 32.82 48.48 29.34L48.48 29.34Q48.48 25.87 49.41 22.76Q50.35 19.66 52.01 17.04Q53.67 14.42 56.02 12.33Q58.36 10.24 61.15 8.80Q63.95 7.35 67.11 6.57Q70.27 5.79 73.63 5.79L73.63 5.79Q76.99 5.79 80.18 6.57Q83.36 7.35 86.15 8.80Q88.95 10.24 91.29 12.33Q93.63 14.42 95.29 17.04Q96.95 19.66 97.89 22.76Q98.83 25.87 98.83 29.34 zM85.39 29.34L85.39 29.34Q85.39 27.47 85.18 25.38Q84.96 23.29 84.45 21.28Q83.95 19.27 83.07 17.41Q82.19 15.55 80.90 14.17Q79.61 12.78 77.81 11.94Q76.02 11.10 73.63 11.10L73.63 11.10Q71.37 11.10 69.61 11.96Q67.85 12.82 66.54 14.25Q65.23 15.67 64.36 17.55Q63.48 19.42 62.93 21.43Q62.38 23.45 62.15 25.50Q61.91 27.55 61.91 29.34L61.91 29.34Q61.91 31.14 62.15 33.19Q62.38 35.24 62.93 37.27Q63.48 39.30 64.36 41.16Q65.23 43.02 66.54 44.44Q67.85 45.87 69.61 46.73Q71.37 47.59 73.63 47.59L73.63 47.59Q75.98 47.59 77.77 46.75Q79.57 45.91 80.88 44.50Q82.19 43.09 83.05 41.26Q83.91 39.42 84.43 37.39Q84.96 35.36 85.18 33.29Q85.39 31.22 85.39 29.34" transform="matrix(1,0,0,1,-301.5799865722656,-26.000999450683594)" style="fill:rgb(248, 90, 64);transform:matrix(1, 0, 0, 1, -301.58, -26.001);;animation:none"></path></g>
<g class="path" style="animation-duration:1s;animation-timing-function:linear;animation-delay:-0.507692s;animation-iteration-count:infinite;animation-direction:normal;animation-fill-mode:forwards;animation-play-state:paused;animation-name:animate-db7etrqksv;animation-timeline:auto;animation-range-start:normal;animation-range-end:normal;transform-box:view-box;transform-origin:-173.67px 3.96px;transform:matrix(1, 0, 0, 1, 0, 0);;animation:none"><path d="M104.84 32.70L104.84 32.70Q104.84 29.62 105.37 26.30Q105.90 22.98 106.89 19.66Q107.89 16.34 109.30 13.09Q110.70 9.85 112.46 6.88L112.46 6.88L122.11 6.88Q121.13 9.81 120.37 13Q119.61 16.18 119.08 19.36Q118.55 22.55 118.26 25.59Q117.97 28.64 117.97 31.26L117.97 31.26Q117.97 32.78 118.11 34.52Q118.24 36.26 118.59 38Q118.95 39.73 119.59 41.34Q120.23 42.94 121.25 44.17Q122.27 45.40 123.73 46.12Q125.20 46.84 127.19 46.84L127.19 46.84Q129.14 46.84 130.68 45.96Q132.23 45.09 133.40 43.66Q134.57 42.23 135.39 40.40Q136.21 38.56 136.74 36.63Q137.27 34.70 137.52 32.84Q137.77 30.98 137.77 29.50L137.77 29.50L137.77 6.88L150.98 6.88L150.98 52L145.90 52L139.84 41.49Q138.71 44.11 137.09 46.24Q135.47 48.37 133.40 49.89Q131.33 51.41 128.81 52.23Q126.29 53.05 123.36 53.05L123.36 53.05Q118.67 53.05 115.20 51.53Q111.72 50.01 109.41 47.31Q107.11 44.62 105.98 40.89Q104.84 37.16 104.84 32.70" transform="matrix(1,0,0,1,-301.5799865722656,-26.000999450683594)" style="fill:rgb(0, 181, 135);transform:matrix(1, 0, 0, 1, -301.58, -26.001);;animation:none"></path></g>
<g class="path" style="animation-duration:1s;animation-timing-function:linear;animation-delay:-0.456923s;animation-iteration-count:infinite;animation-direction:normal;animation-fill-mode:forwards;animation-play-state:paused;animation-name:animate-db7etrqksv;animation-timeline:auto;animation-range-start:normal;animation-range-end:normal;transform-box:view-box;transform-origin:-121.6px 3.34px;transform:matrix(1, 0, 0, 1, 0, 0);;animation:none"><path d="M200.82 37.59L200.82 37.59Q200.82 40.55 199.96 42.86Q199.10 45.16 197.62 46.86Q196.13 48.56 194.10 49.71Q192.07 50.87 189.75 51.57Q187.42 52.27 184.88 52.59Q182.34 52.90 179.84 52.90L179.84 52.90Q176.48 52.90 173.91 52.47Q171.33 52.04 168.98 51.08Q166.64 50.12 164.32 48.60Q161.99 47.08 159.14 44.89L159.14 44.89L166.84 38.60Q167.89 40.59 169.63 42.21Q171.37 43.84 173.24 45.01Q175.12 46.18 176.88 46.80Q178.63 47.43 179.73 47.43L179.73 47.43Q180.63 47.43 181.76 47.37Q182.89 47.31 184.06 47.14Q185.23 46.96 186.37 46.61Q187.50 46.26 188.38 45.65Q189.26 45.05 189.79 44.13Q190.31 43.21 190.31 41.92L190.31 41.92Q190.31 40.59 189.63 39.60Q188.95 38.60 187.85 37.86Q186.76 37.12 185.35 36.61Q183.95 36.10 182.52 35.71Q181.09 35.32 179.77 35.03Q178.44 34.73 177.46 34.46L177.46 34.46Q175.66 33.95 173.67 33.43Q171.68 32.90 169.73 32.21Q167.77 31.53 166 30.59Q164.22 29.66 162.87 28.35Q161.52 27.04 160.72 25.26Q159.92 23.48 159.92 21.10L159.92 21.10Q159.92 16.73 161.66 13.78Q163.40 10.83 166.25 9.05Q169.10 7.27 172.73 6.53Q176.37 5.79 180.12 5.79L180.12 5.79Q182.70 5.79 185.55 6.32Q188.40 6.84 191.09 7.88Q193.79 8.91 196.13 10.40Q198.48 11.88 200.04 13.80L200.04 13.80L192.34 20.12Q191.48 17.78 190.10 16.10Q188.71 14.42 187.09 13.35Q185.47 12.27 183.77 11.77Q182.07 11.26 180.63 11.26L180.63 11.26Q179.22 11.26 177.46 11.37Q175.70 11.49 174.16 12.04Q172.62 12.59 171.54 13.70Q170.47 14.81 170.47 16.77L170.47 16.77Q170.47 18.17 171.11 19.17Q171.76 20.16 172.81 20.89Q173.87 21.61 175.21 22.10Q176.56 22.59 177.97 22.96Q179.38 23.33 180.70 23.60Q182.03 23.87 183.09 24.19L183.09 24.19Q184.88 24.70 186.89 25.22Q188.91 25.75 190.86 26.43Q192.81 27.12 194.63 28.04Q196.45 28.95 197.81 30.28Q199.18 31.61 200 33.39Q200.82 35.16 200.82 37.59" transform="matrix(1,0,0,1,-301.5799865722656,-26.000999450683594)" style="fill:rgb(10, 142, 160);transform:matrix(1, 0, 0, 1, -301.58, -26.001);;animation:none"></path></g>
<g class="path" style="animation-duration:1s;animation-timing-function:linear;animation-delay:-0.406154s;animation-iteration-count:infinite;animation-direction:normal;animation-fill-mode:forwards;animation-play-state:paused;animation-name:animate-db7etrqksv;animation-timeline:auto;animation-range-start:normal;animation-range-end:normal;transform-box:view-box;transform-origin:-51.79px 3.34px;transform:matrix(1, 0, 0, 1, 0, 0);;animation:none"><path d="M270.63 37.59L270.63 37.59Q270.63 40.55 269.77 42.86Q268.91 45.16 267.42 46.86Q265.94 48.56 263.91 49.71Q261.88 50.87 259.55 51.57Q257.23 52.27 254.69 52.59Q252.15 52.90 249.65 52.90L249.65 52.90Q246.29 52.90 243.71 52.47Q241.13 52.04 238.79 51.08Q236.45 50.12 234.12 48.60Q231.80 47.08 228.95 44.89L228.95 44.89L236.64 38.60Q237.70 40.59 239.43 42.21Q241.17 43.84 243.05 45.01Q244.92 46.18 246.68 46.80Q248.44 47.43 249.53 47.43L249.53 47.43Q250.43 47.43 251.56 47.37Q252.70 47.31 253.87 47.14Q255.04 46.96 256.17 46.61Q257.30 46.26 258.18 45.65Q259.06 45.05 259.59 44.13Q260.12 43.21 260.12 41.92L260.12 41.92Q260.12 40.59 259.43 39.60Q258.75 38.60 257.66 37.86Q256.56 37.12 255.16 36.61Q253.75 36.10 252.32 35.71Q250.90 35.32 249.57 35.03Q248.24 34.73 247.27 34.46L247.27 34.46Q245.47 33.95 243.48 33.43Q241.48 32.90 239.53 32.21Q237.58 31.53 235.80 30.59Q234.02 29.66 232.68 28.35Q231.33 27.04 230.53 25.26Q229.73 23.48 229.73 21.10L229.73 21.10Q229.73 16.73 231.46 13.78Q233.20 10.83 236.05 9.05Q238.91 7.27 242.54 6.53Q246.17 5.79 249.92 5.79L249.92 5.79Q252.50 5.79 255.35 6.32Q258.20 6.84 260.90 7.88Q263.59 8.91 265.94 10.40Q268.28 11.88 269.84 13.80L269.84 13.80L262.15 20.12Q261.29 17.78 259.90 16.10Q258.52 14.42 256.89 13.35Q255.27 12.27 253.57 11.77Q251.88 11.26 250.43 11.26L250.43 11.26Q249.02 11.26 247.27 11.37Q245.51 11.49 243.96 12.04Q242.42 12.59 241.35 13.70Q240.27 14.81 240.27 16.77L240.27 16.77Q240.27 18.17 240.92 19.17Q241.56 20.16 242.62 20.89Q243.67 21.61 245.02 22.10Q246.37 22.59 247.77 22.96Q249.18 23.33 250.51 23.60Q251.84 23.87 252.89 24.19L252.89 24.19Q254.69 24.70 256.70 25.22Q258.71 25.75 260.66 26.43Q262.62 27.12 264.43 28.04Q266.25 28.95 267.62 30.28Q268.98 31.61 269.80 33.39Q270.63 35.16 270.63 37.59" transform="matrix(1,0,0,1,-301.5799865722656,-26.000999450683594)" style="fill:rgb(244, 137, 36);transform:matrix(1, 0, 0, 1, -301.58, -26.001);;animation:none"></path></g>
<g class="path" style="animation-duration:1s;animation-timing-function:linear;animation-delay:-0.355385s;animation-iteration-count:infinite;animation-direction:normal;animation-fill-mode:forwards;animation-play-state:paused;animation-name:animate-db7etrqksv;animation-timeline:auto;animation-range-start:normal;animation-range-end:normal;transform-box:view-box;transform-origin:-0.15px 3.34px;transform:matrix(1, 0, 0, 1, 0, 0);;animation:none"><path d="M326.60 29.34L326.60 29.34Q326.60 32.86 325.66 35.95Q324.73 39.03 323.07 41.65Q321.41 44.27 319.06 46.36Q316.72 48.45 313.93 49.89Q311.13 51.34 307.95 52.12Q304.77 52.90 301.41 52.90L301.41 52.90Q298.05 52.90 294.88 52.12Q291.72 51.34 288.93 49.89Q286.13 48.45 283.79 46.36Q281.45 44.27 279.79 41.65Q278.13 39.03 277.19 35.93Q276.25 32.82 276.25 29.34L276.25 29.34Q276.25 25.87 277.19 22.76Q278.13 19.66 279.79 17.04Q281.45 14.42 283.79 12.33Q286.13 10.24 288.93 8.80Q291.72 7.35 294.88 6.57Q298.05 5.79 301.41 5.79L301.41 5.79Q304.77 5.79 307.95 6.57Q311.13 7.35 313.93 8.80Q316.72 10.24 319.06 12.33Q321.41 14.42 323.07 17.04Q324.73 19.66 325.66 22.76Q326.60 25.87 326.60 29.34 zM313.16 29.34L313.16 29.34Q313.16 27.47 312.95 25.38Q312.73 23.29 312.23 21.28Q311.72 19.27 310.84 17.41Q309.96 15.55 308.67 14.17Q307.38 12.78 305.59 11.94Q303.79 11.10 301.41 11.10L301.41 11.10Q299.14 11.10 297.38 11.96Q295.63 12.82 294.32 14.25Q293.01 15.67 292.13 17.55Q291.25 19.42 290.70 21.43Q290.16 23.45 289.92 25.50Q289.69 27.55 289.69 29.34L289.69 29.34Q289.69 31.14 289.92 33.19Q290.16 35.24 290.70 37.27Q291.25 39.30 292.13 41.16Q293.01 43.02 294.32 44.44Q295.63 45.87 297.38 46.73Q299.14 47.59 301.41 47.59L301.41 47.59Q303.75 47.59 305.55 46.75Q307.34 45.91 308.65 44.50Q309.96 43.09 310.82 41.26Q311.68 39.42 312.21 37.39Q312.73 35.36 312.95 33.29Q313.16 31.22 313.16 29.34" transform="matrix(1,0,0,1,-301.5799865722656,-26.000999450683594)" style="fill:rgb(190, 137, 13);transform:matrix(1, 0, 0, 1, -301.58, -26.001);;animation:none"></path></g>
<g class="path" style="animation-duration:1s;animation-timing-function:linear;animation-delay:-0.304615s;animation-iteration-count:infinite;animation-direction:normal;animation-fill-mode:forwards;animation-play-state:paused;animation-name:animate-db7etrqksv;animation-timeline:auto;animation-range-start:normal;animation-range-end:normal;transform-box:view-box;transform-origin:54.11px 3.96px;transform:matrix(1, 0, 0, 1, 0, 0);;animation:none"><path d="M332.62 32.70L332.62 32.70Q332.62 29.62 333.14 26.30Q333.67 22.98 334.67 19.66Q335.66 16.34 337.07 13.09Q338.48 9.85 340.23 6.88L340.23 6.88L349.88 6.88Q348.91 9.81 348.14 13Q347.38 16.18 346.86 19.36Q346.33 22.55 346.04 25.59Q345.74 28.64 345.74 31.26L345.74 31.26Q345.74 32.78 345.88 34.52Q346.02 36.26 346.37 38Q346.72 39.73 347.36 41.34Q348.01 42.94 349.02 44.17Q350.04 45.40 351.50 46.12Q352.97 46.84 354.96 46.84L354.96 46.84Q356.91 46.84 358.46 45.96Q360 45.09 361.17 43.66Q362.34 42.23 363.16 40.40Q363.98 38.56 364.51 36.63Q365.04 34.70 365.29 32.84Q365.55 30.98 365.55 29.50L365.55 29.50L365.55 6.88L378.75 6.88L378.75 52L373.67 52L367.62 41.49Q366.48 44.11 364.86 46.24Q363.24 48.37 361.17 49.89Q359.10 51.41 356.58 52.23Q354.06 53.05 351.13 53.05L351.13 53.05Q346.45 53.05 342.97 51.53Q339.49 50.01 337.19 47.31Q334.88 44.62 333.75 40.89Q332.62 37.16 332.62 32.70" transform="matrix(1,0,0,1,-301.5799865722656,-26.000999450683594)" style="fill:rgb(255, 86, 255);transform:matrix(1, 0, 0, 1, -301.58, -26.001);;animation:none"></path></g>
<g class="path" style="animation-duration:1s;animation-timing-function:linear;animation-delay:-0.253846s;animation-iteration-count:infinite;animation-direction:normal;animation-fill-mode:forwards;animation-play-state:paused;animation-name:animate-db7etrqksv;animation-timeline:auto;animation-range-start:normal;animation-range-end:normal;transform-box:view-box;transform-origin:111.26px -0.06px;transform:matrix(1, 0, 0, 1, 0, 0);;animation:none"><path d="M435.90 26.14L435.90 26.14Q435.90 30.71 434.79 35.67Q433.67 40.63 431.68 45.40Q429.69 50.16 426.91 54.36Q424.14 58.56 420.82 61.61L420.82 61.61L415.86 58.91Q416.91 56.96 417.85 54.54Q418.79 52.12 419.55 49.40Q420.31 46.69 420.92 43.80Q421.52 40.91 421.93 38.07Q422.34 35.24 422.56 32.57Q422.77 29.89 422.77 27.59L422.77 27.59Q422.77 26.06 422.66 24.32Q422.54 22.59 422.17 20.85Q421.80 19.11 421.17 17.51Q420.55 15.91 419.51 14.70Q418.48 13.48 417.01 12.74Q415.55 12 413.55 12L413.55 12Q411.60 12 410.08 12.88Q408.55 13.76 407.38 15.18Q406.21 16.61 405.37 18.45Q404.53 20.28 404 22.21Q403.48 24.15 403.24 26.02Q403.01 27.90 403.01 29.38L403.01 29.38L403.01 52L389.77 52L389.77-9.72L402.97-9.72L402.97 13.52Q405.51 9.81 409.20 7.80Q412.89 5.79 417.38 5.79L417.38 5.79Q422.07 5.79 425.55 7.31Q429.02 8.84 431.33 11.55Q433.63 14.27 434.77 18Q435.90 21.73 435.90 26.14" transform="matrix(1,0,0,1,-301.5799865722656,-26.000999450683594)" style="fill:rgb(101, 150, 0);transform:matrix(1, 0, 0, 1, -301.58, -26.001);;animation:none"></path></g>
<g class="path" style="animation-duration:1s;animation-timing-function:linear;animation-delay:-0.203077s;animation-iteration-count:infinite;animation-direction:normal;animation-fill-mode:forwards;animation-play-state:paused;animation-name:animate-db7etrqksv;animation-timeline:auto;animation-range-start:normal;animation-range-end:normal;transform-box:view-box;transform-origin:164.48px 3.34px;transform:matrix(1, 0, 0, 1, 0, 0);;animation:none"><path d="M490.04 6.88L490.04 52L476.84 52L476.84 46.61Q474.49 49.81 471.19 51.36Q467.89 52.90 463.95 52.90L463.95 52.90Q458.79 52.90 454.73 51.06Q450.66 49.23 447.85 46.04Q445.04 42.86 443.55 38.56Q442.07 34.27 442.07 29.34L442.07 29.34Q442.07 24.42 443.55 20.12Q445.04 15.83 447.85 12.64Q450.66 9.46 454.73 7.62Q458.79 5.79 463.95 5.79L463.95 5.79Q466.56 5.79 468.93 6.57Q471.29 7.35 473.26 8.78Q475.23 10.20 476.74 12.21Q478.24 14.23 479.10 16.69L479.10 16.69L484.96 6.88L490.04 6.88 zM476.76 29.34L476.76 29.34Q476.76 27.59 476.58 25.63Q476.41 23.68 475.98 21.77Q475.55 19.85 474.79 18.11Q474.02 16.37 472.83 15.03Q471.64 13.68 469.96 12.90Q468.28 12.12 466.05 12.12L466.05 12.12Q463.83 12.12 462.19 12.92Q460.55 13.72 459.38 15.07Q458.20 16.41 457.44 18.17Q456.68 19.93 456.25 21.84Q455.82 23.76 455.64 25.69Q455.47 27.62 455.47 29.34L455.47 29.34Q455.47 31.06 455.64 33.02Q455.82 34.97 456.25 36.88Q456.68 38.80 457.44 40.55Q458.20 42.31 459.38 43.66Q460.55 45.01 462.19 45.81Q463.83 46.61 466.05 46.61L466.05 46.61Q468.09 46.61 469.67 45.77Q471.25 44.93 472.44 43.52Q473.63 42.12 474.45 40.32Q475.27 38.52 475.78 36.61Q476.29 34.70 476.52 32.80Q476.76 30.91 476.76 29.34" transform="matrix(1,0,0,1,-301.5799865722656,-26.000999450683594)" style="fill:rgb(251, 69, 115);transform:matrix(1, 0, 0, 1, -301.58, -26.001);;animation:none"></path></g>
<g class="path" style="animation-duration:1s;animation-timing-function:linear;animation-delay:-0.152308s;animation-iteration-count:infinite;animation-direction:normal;animation-fill-mode:forwards;animation-play-state:paused;animation-name:animate-db7etrqksv;animation-timeline:auto;animation-range-start:normal;animation-range-end:normal;transform-box:view-box;transform-origin:206.14px -30px;transform:matrix(1, 0, 0, 1, 0, 0);;animation:none"><path d="M514.92-4.02L514.92-4.02Q514.92-2.53 514.36-1.20Q513.79 0.12 512.81 1.10Q511.84 2.08 510.51 2.64Q509.18 3.21 507.70 3.21L507.70 3.21Q506.21 3.21 504.90 2.64Q503.59 2.08 502.62 1.10Q501.64 0.12 501.07-1.20Q500.51-2.53 500.51-4.02L500.51-4.02Q500.51-5.50 501.07-6.81Q501.64-8.12 502.62-9.09Q503.59-10.07 504.90-10.64Q506.21-11.20 507.70-11.20L507.70-11.20Q509.18-11.20 510.51-10.64Q511.84-10.07 512.81-9.09Q513.79-8.12 514.36-6.81Q514.92-5.50 514.92-4.02" transform="matrix(1,0,0,1,-301.5799865722656,-26.000999450683594)" style="fill:rgb(3, 126, 243);transform:matrix(1, 0, 0, 1, -301.58, -26.001);;animation:none"></path></g>
<g class="path" style="animation-duration:1s;animation-timing-function:linear;animation-delay:-0.101538s;animation-iteration-count:infinite;animation-direction:normal;animation-fill-mode:forwards;animation-play-state:paused;animation-name:animate-db7etrqksv;animation-timeline:auto;animation-range-start:normal;animation-range-end:normal;transform-box:view-box;transform-origin:206.14px 3.46px;transform:matrix(1, 0, 0, 1, 0, 0);;animation:none"><path d="M514.34 6.92L514.34 52L501.09 52L501.09 6.92L514.34 6.92" transform="matrix(1,0,0,1,-301.5799865722656,-26.000999450683594)" style="fill:rgb(248, 90, 64);transform:matrix(1, 0, 0, 1, -301.58, -26.001);;animation:none"></path></g>
<g class="path" style="animation-duration:1s;animation-timing-function:linear;animation-delay:-0.0507692s;animation-iteration-count:infinite;animation-direction:normal;animation-fill-mode:forwards;animation-play-state:paused;animation-name:animate-db7etrqksv;animation-timeline:auto;animation-range-start:normal;animation-range-end:normal;transform-box:view-box;transform-origin:236.92px -4.86px;transform:matrix(1, 0, 0, 1, 0, 0);;animation:none"><path d="M542.38 12.12L542.38 52L529.14 52L529.14 12.12L520.94 12.12L520.94 6.88L529.14 6.88L529.14-9.72L542.38-9.72L542.38 6.88L556.05 6.88L556.05 12.12L542.38 12.12" transform="matrix(1,0,0,1,-301.5799865722656,-26.000999450683594)" style="fill:rgb(0, 181, 135);transform:matrix(1, 0, 0, 1, -301.58, -26.001);;animation:none"></path></g>
<g class="path" style="animation-duration:1s;animation-timing-function:linear;animation-delay:0s;animation-iteration-count:infinite;animation-direction:normal;animation-fill-mode:forwards;animation-play-state:paused;animation-name:animate-db7etrqksv;animation-timeline:auto;animation-range-start:normal;animation-range-end:normal;transform-box:view-box;transform-origin:279.01px 3.34px;transform:matrix(1, 0, 0, 1, 0, 0);;animation:none"><path d="M571.05 30.59L571.05 30.59Q573.48 31.14 575.90 31.45Q578.32 31.77 580.78 31.77L580.78 31.77Q583.36 31.77 585.57 31.28Q587.77 30.79 589.39 29.64Q591.02 28.48 591.95 26.57Q592.89 24.66 592.89 21.80L592.89 21.80Q592.89 19.50 592.27 17.59Q591.64 15.67 590.41 14.30Q589.18 12.94 587.38 12.18Q585.59 11.41 583.20 11.41L583.20 11.41Q580.98 11.41 579.20 12.23Q577.42 13.05 576.07 14.44Q574.73 15.83 573.77 17.66Q572.81 19.50 572.19 21.49Q571.56 23.48 571.29 25.52Q571.02 27.55 571.02 29.34L571.02 29.34Q571.02 29.66 571.02 29.97Q571.02 30.28 571.05 30.59 zM603.59 21.69L603.59 21.69Q603.59 24.46 602.70 26.63Q601.80 28.80 600.25 30.44Q598.71 32.08 596.68 33.21Q594.65 34.34 592.34 35.07Q590.04 35.79 587.60 36.10Q585.16 36.41 582.85 36.41L582.85 36.41Q579.92 36.41 577.07 36Q574.22 35.59 571.45 34.70L571.45 34.70Q571.88 37.27 572.81 39.60Q573.75 41.92 575.31 43.66Q576.88 45.40 579.16 46.41Q581.45 47.43 584.57 47.43L584.57 47.43Q586.64 47.43 588.52 46.80Q590.39 46.18 591.95 45.05Q593.52 43.91 594.71 42.35Q595.90 40.79 596.64 38.87L596.64 38.87L602.34 40.98Q601.05 44.07 598.81 46.32Q596.56 48.56 593.73 50.03Q590.90 51.49 587.71 52.20Q584.53 52.90 581.41 52.90L581.41 52.90Q576.25 52.90 571.88 51.16Q567.50 49.42 564.34 46.30Q561.17 43.17 559.38 38.84Q557.58 34.50 557.58 29.34L557.58 29.34Q557.58 24.19 559.38 19.85Q561.17 15.52 564.34 12.39Q567.50 9.27 571.88 7.53Q576.25 5.79 581.41 5.79L581.41 5.79Q583.91 5.79 586.52 6.14Q589.14 6.49 591.60 7.25Q594.06 8.02 596.25 9.23Q598.44 10.44 600.06 12.21Q601.68 13.99 602.64 16.34Q603.59 18.68 603.59 21.69" transform="matrix(1,0,0,1,-301.5799865722656,-26.000999450683594)" style="fill:rgb(10, 142, 160);transform:matrix(1, 0, 0, 1, -301.58, -26.001);;animation:none"></path></g></g>
<text dy="0.35em" fill="#037ef3" font-family="Aclonica" font-size="61" style="fill:rgb(3, 126, 243);opacity:0;;animation:none">vous souhaite</text></g></g>
<STYLE type="text/css">@keyframes animate-db7etrqksv { 0.00% {animation-timing-function: cubic-bezier(0.33,0.00,0.67,0.00);transform: translate(0.00px,0.00px) rotate(0.00deg) scale(1.00, 1.00) skew(0deg, 0.00deg) ;opacity: 1.00;}50.00% {animation-timing-function: cubic-bezier(0.33,0.00,0.67,0.00);transform: translate(0.00px,0.00px) rotate(0.00deg) ;}100.00% {animation-timing-function: cubic-bezier(0.33,0.00,0.67,0.00);transform: translate(0.00px,0.00px) rotate(0.00deg) ;} }</STYLE><!-- [ldio] generated by https://loading.io --></svg>