<svg xmlns="http://www.w3.org/2000/svg" xmlns:xlink="http://www.w3.org/1999/xlink" viewBox="0 0 406 70" preserveAspectRatio="xMidYMid" width="406" height="70" style="display:block;shape-rendering:auto;background-position-x:0%;background-position-y:0%;background-size:auto;background-origin:padding-box;background-clip:border-box;background:scroll rgba(0, 0, 0, 0) none  repeat;width:406px;height:70px;;animation:none"><style type="text/css">.ld-text text {
    text-anchor: middle;
    dominant-baseline: middle;
    font-size: 61px;
    opacity: 0;
    user-select: none;
    pointer-events: none;
  }</style>


<g class="ld-text" style="transform-origin:203px 35px;transform:matrix(1, 0, 0, 1, 0, 0);;animation:none"><g transform="matrix(1,0,0,1,203,35)" style="transform:matrix(1, 0, 0, 1, 203, 35);;animation:none"><g transform="matrix(0.762499988079071,0,0,0.762499988079071,0,0)" style="transform:matrix(0.7625, 0, 0, 0.7625, 0, 0);;animation:none"><g class="path" style="animation-duration:1s;animation-timing-function:linear;animation-delay:-0.6s;animation-iteration-count:infinite;animation-direction:normal;animation-fill-mode:forwards;animation-play-state:paused;animation-name:animate-db7etrqksv;animation-timeline:auto;animation-range-start:normal;animation-range-end:normal;transform-box:view-box;transform-origin:-223.4px -0.8px;transform:matrix(1, 0, 0, 1, 0, 0);;animation:none"><path d="M60.90 26.45L60.90 26.45Q60.90 30.55 59.80 34.24Q58.71 37.93 56.74 41.06Q54.77 44.18 52.03 46.70Q49.30 49.22 46 50.98Q42.70 52.74 38.93 53.69Q35.16 54.65 31.17 54.65L31.17 54.65L6.37 54.65L6.37-1.60L31.17-1.60Q35.16-1.60 38.91-0.66Q42.66 0.27 45.96 2.01Q49.26 3.75 52.01 6.25Q54.77 8.75 56.74 11.86Q58.71 14.96 59.80 18.65Q60.90 22.35 60.90 26.45 zM45.16 26.45L45.16 26.45Q45.16 21.88 44.04 17.76Q42.93 13.63 40.59 10.51Q38.24 7.38 34.63 5.55Q31.02 3.71 25.98 3.71L25.98 3.71L21.88 3.71L21.88 49.18L25.98 49.18Q30.94 49.18 34.55 47.33Q38.16 45.47 40.53 42.33Q42.89 39.18 44.02 35.08Q45.16 30.98 45.16 26.45" transform="matrix(1,0,0,1,-257.0299987792969,-27.326000213623047)" style="fill:rgb(3, 126, 243);transform:matrix(1, 0, 0, 1, -257.03, -27.326);;animation:none"></path></g>
<g class="path" style="animation-duration:1s;animation-timing-function:linear;animation-delay:-0.54s;animation-iteration-count:infinite;animation-direction:normal;animation-fill-mode:forwards;animation-play-state:paused;animation-name:animate-db7etrqksv;animation-timeline:auto;animation-range-start:normal;animation-range-end:normal;transform-box:view-box;transform-origin:-167.46px 4.67px;transform:matrix(1, 0, 0, 1, 0, 0);;animation:none"><path d="M80.04 33.24L80.04 33.24Q82.46 33.79 84.88 34.10Q87.30 34.42 89.77 34.42L89.77 34.42Q92.34 34.42 94.55 33.93Q96.76 33.44 98.38 32.29Q100 31.13 100.94 29.22Q101.88 27.31 101.88 24.45L101.88 24.45Q101.88 22.15 101.25 20.24Q100.63 18.32 99.39 16.95Q98.16 15.59 96.37 14.83Q94.57 14.06 92.19 14.06L92.19 14.06Q89.96 14.06 88.18 14.88Q86.41 15.70 85.06 17.09Q83.71 18.48 82.75 20.31Q81.80 22.15 81.17 24.14Q80.55 26.13 80.27 28.17Q80 30.20 80 31.99L80 31.99Q80 32.31 80 32.62Q80 32.93 80.04 33.24 zM112.58 24.34L112.58 24.34Q112.58 27.11 111.68 29.28Q110.78 31.45 109.24 33.09Q107.70 34.73 105.66 35.86Q103.63 36.99 101.33 37.72Q99.02 38.44 96.58 38.75Q94.14 39.06 91.84 39.06L91.84 39.06Q88.91 39.06 86.05 38.65Q83.20 38.24 80.43 37.35L80.43 37.35Q80.86 39.92 81.80 42.25Q82.73 44.57 84.30 46.31Q85.86 48.05 88.14 49.06Q90.43 50.08 93.55 50.08L93.55 50.08Q95.63 50.08 97.50 49.45Q99.38 48.83 100.94 47.70Q102.50 46.56 103.69 45Q104.88 43.44 105.63 41.52L105.63 41.52L111.33 43.63Q110.04 46.72 107.79 48.97Q105.55 51.21 102.71 52.68Q99.88 54.14 96.70 54.85Q93.52 55.55 90.39 55.55L90.39 55.55Q85.23 55.55 80.86 53.81Q76.48 52.07 73.32 48.95Q70.16 45.82 68.36 41.49Q66.56 37.15 66.56 31.99L66.56 31.99Q66.56 26.84 68.36 22.50Q70.16 18.17 73.32 15.04Q76.48 11.92 80.86 10.18Q85.23 8.44 90.39 8.44L90.39 8.44Q92.89 8.44 95.51 8.79Q98.13 9.14 100.59 9.90Q103.05 10.67 105.23 11.88Q107.42 13.09 109.04 14.86Q110.66 16.64 111.62 18.99Q112.58 21.33 112.58 24.34" transform="matrix(1,0,0,1,-257.0299987792969,-27.326000213623047)" style="fill:rgb(248, 90, 64);transform:matrix(1, 0, 0, 1, -257.03, -27.326);;animation:none"></path></g>
<g class="path" style="animation-duration:1s;animation-timing-function:linear;animation-delay:-0.48s;animation-iteration-count:infinite;animation-direction:normal;animation-fill-mode:forwards;animation-play-state:paused;animation-name:animate-db7etrqksv;animation-timeline:auto;animation-range-start:normal;animation-range-end:normal;transform-box:view-box;transform-origin:-118.22px 4.67px;transform:matrix(1, 0, 0, 1, 0, 0);;animation:none"><path d="M159.65 40.24L159.65 40.24Q159.65 43.20 158.79 45.51Q157.93 47.81 156.45 49.51Q154.96 51.21 152.93 52.36Q150.90 53.52 148.57 54.22Q146.25 54.92 143.71 55.24Q141.17 55.55 138.67 55.55L138.67 55.55Q135.31 55.55 132.73 55.12Q130.16 54.69 127.81 53.73Q125.47 52.77 123.14 51.25Q120.82 49.73 117.97 47.54L117.97 47.54L125.66 41.25Q126.72 43.24 128.46 44.86Q130.20 46.49 132.07 47.66Q133.95 48.83 135.70 49.45Q137.46 50.08 138.55 50.08L138.55 50.08Q139.45 50.08 140.59 50.02Q141.72 49.96 142.89 49.79Q144.06 49.61 145.20 49.26Q146.33 48.91 147.21 48.30Q148.09 47.70 148.61 46.78Q149.14 45.86 149.14 44.57L149.14 44.57Q149.14 43.24 148.46 42.25Q147.77 41.25 146.68 40.51Q145.59 39.77 144.18 39.26Q142.77 38.75 141.35 38.36Q139.92 37.97 138.59 37.68Q137.27 37.38 136.29 37.11L136.29 37.11Q134.49 36.60 132.50 36.08Q130.51 35.55 128.55 34.86Q126.60 34.18 124.82 33.24Q123.05 32.31 121.70 31Q120.35 29.69 119.55 27.91Q118.75 26.13 118.75 23.75L118.75 23.75Q118.75 19.38 120.49 16.43Q122.23 13.48 125.08 11.70Q127.93 9.92 131.56 9.18Q135.20 8.44 138.95 8.44L138.95 8.44Q141.52 8.44 144.38 8.97Q147.23 9.49 149.92 10.53Q152.62 11.56 154.96 13.05Q157.30 14.53 158.87 16.45L158.87 16.45L151.17 22.77Q150.31 20.43 148.93 18.75Q147.54 17.07 145.92 16Q144.30 14.92 142.60 14.42Q140.90 13.91 139.45 13.91L139.45 13.91Q138.05 13.91 136.29 14.02Q134.53 14.14 132.99 14.69Q131.45 15.24 130.37 16.35Q129.30 17.46 129.30 19.42L129.30 19.42Q129.30 20.82 129.94 21.82Q130.59 22.81 131.64 23.54Q132.70 24.26 134.04 24.75Q135.39 25.24 136.80 25.61Q138.20 25.98 139.53 26.25Q140.86 26.52 141.91 26.84L141.91 26.84Q143.71 27.35 145.72 27.87Q147.73 28.40 149.69 29.08Q151.64 29.77 153.46 30.69Q155.27 31.60 156.64 32.93Q158.01 34.26 158.83 36.04Q159.65 37.81 159.65 40.24" transform="matrix(1,0,0,1,-257.0299987792969,-27.326000213623047)" style="fill:rgb(0, 181, 135);transform:matrix(1, 0, 0, 1, -257.03, -27.326);;animation:none"></path></g>
<g class="path" style="animation-duration:1s;animation-timing-function:linear;animation-delay:-0.42s;animation-iteration-count:infinite;animation-direction:normal;animation-fill-mode:forwards;animation-play-state:paused;animation-name:animate-db7etrqksv;animation-timeline:auto;animation-range-start:normal;animation-range-end:normal;transform-box:view-box;transform-origin:-68.67px 4.67px;transform:matrix(1, 0, 0, 1, 0, 0);;animation:none"><path d="M178.83 33.24L178.83 33.24Q181.25 33.79 183.67 34.10Q186.09 34.42 188.55 34.42L188.55 34.42Q191.13 34.42 193.34 33.93Q195.55 33.44 197.17 32.29Q198.79 31.13 199.73 29.22Q200.66 27.31 200.66 24.45L200.66 24.45Q200.66 22.15 200.04 20.24Q199.41 18.32 198.18 16.95Q196.95 15.59 195.16 14.83Q193.36 14.06 190.98 14.06L190.98 14.06Q188.75 14.06 186.97 14.88Q185.20 15.70 183.85 17.09Q182.50 18.48 181.54 20.31Q180.59 22.15 179.96 24.14Q179.34 26.13 179.06 28.17Q178.79 30.20 178.79 31.99L178.79 31.99Q178.79 32.31 178.79 32.62Q178.79 32.93 178.83 33.24 zM211.37 24.34L211.37 24.34Q211.37 27.11 210.47 29.28Q209.57 31.45 208.03 33.09Q206.48 34.73 204.45 35.86Q202.42 36.99 200.12 37.72Q197.81 38.44 195.37 38.75Q192.93 39.06 190.63 39.06L190.63 39.06Q187.70 39.06 184.84 38.65Q181.99 38.24 179.22 37.35L179.22 37.35Q179.65 39.92 180.59 42.25Q181.52 44.57 183.09 46.31Q184.65 48.05 186.93 49.06Q189.22 50.08 192.34 50.08L192.34 50.08Q194.41 50.08 196.29 49.45Q198.16 48.83 199.73 47.70Q201.29 46.56 202.48 45Q203.67 43.44 204.41 41.52L204.41 41.52L210.12 43.63Q208.83 46.72 206.58 48.97Q204.34 51.21 201.50 52.68Q198.67 54.14 195.49 54.85Q192.30 55.55 189.18 55.55L189.18 55.55Q184.02 55.55 179.65 53.81Q175.27 52.07 172.11 48.95Q168.95 45.82 167.15 41.49Q165.35 37.15 165.35 31.99L165.35 31.99Q165.35 26.84 167.15 22.50Q168.95 18.17 172.11 15.04Q175.27 11.92 179.65 10.18Q184.02 8.44 189.18 8.44L189.18 8.44Q191.68 8.44 194.30 8.79Q196.91 9.14 199.38 9.90Q201.84 10.67 204.02 11.88Q206.21 13.09 207.83 14.86Q209.45 16.64 210.41 18.99Q211.37 21.33 211.37 24.34" transform="matrix(1,0,0,1,-257.0299987792969,-27.326000213623047)" style="fill:rgb(10, 142, 160);transform:matrix(1, 0, 0, 1, -257.03, -27.326);;animation:none"></path></g>
<g class="path" style="animation-duration:1s;animation-timing-function:linear;animation-delay:-0.36s;animation-iteration-count:infinite;animation-direction:normal;animation-fill-mode:forwards;animation-play-state:paused;animation-name:animate-db7etrqksv;animation-timeline:auto;animation-range-start:normal;animation-range-end:normal;transform-box:view-box;transform-origin:-15.97px 4.67px;transform:matrix(1, 0, 0, 1, 0, 0);;animation:none"><path d="M265.04 9.53L265.04 54.65L251.84 54.65L251.84 49.26Q249.49 52.46 246.19 54.01Q242.89 55.55 238.95 55.55L238.95 55.55Q233.79 55.55 229.73 53.71Q225.66 51.88 222.85 48.69Q220.04 45.51 218.55 41.21Q217.07 36.92 217.07 31.99L217.07 31.99Q217.07 27.07 218.55 22.77Q220.04 18.48 222.85 15.29Q225.66 12.11 229.73 10.27Q233.79 8.44 238.95 8.44L238.95 8.44Q241.56 8.44 243.93 9.22Q246.29 10 248.26 11.43Q250.23 12.85 251.74 14.86Q253.24 16.88 254.10 19.34L254.10 19.34L259.96 9.53L265.04 9.53 zM251.76 31.99L251.76 31.99Q251.76 30.24 251.58 28.28Q251.41 26.33 250.98 24.42Q250.55 22.50 249.79 20.76Q249.02 19.02 247.83 17.68Q246.64 16.33 244.96 15.55Q243.28 14.77 241.05 14.77L241.05 14.77Q238.83 14.77 237.19 15.57Q235.55 16.37 234.38 17.72Q233.20 19.06 232.44 20.82Q231.68 22.58 231.25 24.49Q230.82 26.41 230.64 28.34Q230.47 30.27 230.47 31.99L230.47 31.99Q230.47 33.71 230.64 35.67Q230.82 37.62 231.25 39.53Q231.68 41.45 232.44 43.20Q233.20 44.96 234.38 46.31Q235.55 47.66 237.19 48.46Q238.83 49.26 241.05 49.26L241.05 49.26Q243.09 49.26 244.67 48.42Q246.25 47.58 247.44 46.17Q248.63 44.77 249.45 42.97Q250.27 41.17 250.78 39.26Q251.29 37.35 251.52 35.45Q251.76 33.56 251.76 31.99" transform="matrix(1,0,0,1,-257.0299987792969,-27.326000213623047)" style="fill:rgb(244, 137, 36);transform:matrix(1, 0, 0, 1, -257.03, -27.326);;animation:none"></path></g>
<g class="path" style="animation-duration:1s;animation-timing-function:linear;animation-delay:-0.3s;animation-iteration-count:infinite;animation-direction:normal;animation-fill-mode:forwards;animation-play-state:paused;animation-name:animate-db7etrqksv;animation-timeline:auto;animation-range-start:normal;animation-range-end:normal;transform-box:view-box;transform-origin:-10.93px -29.71px;transform:matrix(1, 0, 0, 1, 0, 0);;animation:none"><path d="M243.75-9.30L256.17-9.30L243.79 4.53L236.02 4.53L243.75-9.30" transform="matrix(1,0,0,1,-257.0299987792969,-27.326000213623047)" style="fill:rgb(190, 137, 13);transform:matrix(1, 0, 0, 1, -257.03, -27.326);;animation:none"></path></g>
<g class="path" style="animation-duration:1s;animation-timing-function:linear;animation-delay:-0.24s;animation-iteration-count:infinite;animation-direction:normal;animation-fill-mode:forwards;animation-play-state:paused;animation-name:animate-db7etrqksv;animation-timeline:auto;animation-range-start:normal;animation-range-end:normal;transform-box:view-box;transform-origin:42.09px 9.02px;transform:matrix(1, 0, 0, 1, 0, 0);;animation:none"><path d="M322.19 28.79L322.19 28.79Q322.19 33.36 321.07 38.32Q319.96 43.28 317.97 48.05Q315.98 52.81 313.20 57.01Q310.43 61.21 307.11 64.26L307.11 64.26L302.15 61.56Q303.20 59.61 304.14 57.19Q305.08 54.77 305.84 52.05Q306.60 49.34 307.21 46.45Q307.81 43.56 308.22 40.72Q308.63 37.89 308.85 35.22Q309.06 32.54 309.06 30.24L309.06 30.24Q309.06 28.71 308.95 26.97Q308.83 25.24 308.46 23.50Q308.09 21.76 307.46 20.16Q306.84 18.56 305.80 17.35Q304.77 16.13 303.30 15.39Q301.84 14.65 299.84 14.65L299.84 14.65Q297.89 14.65 296.37 15.53Q294.84 16.41 293.67 17.83Q292.50 19.26 291.66 21.10Q290.82 22.93 290.29 24.86Q289.77 26.80 289.53 28.67Q289.30 30.55 289.30 32.03L289.30 32.03L289.30 54.65L276.05 54.65L276.05 9.53L281.13 9.53L287.19 20.04Q288.28 17.42 289.92 15.27Q291.56 13.13 293.63 11.60Q295.70 10.08 298.22 9.26Q300.74 8.44 303.67 8.44L303.67 8.44Q308.36 8.44 311.84 9.96Q315.31 11.49 317.62 14.20Q319.92 16.92 321.05 20.65Q322.19 24.38 322.19 28.79" transform="matrix(1,0,0,1,-257.0299987792969,-27.326000213623047)" style="fill:rgb(255, 86, 255);transform:matrix(1, 0, 0, 1, -257.03, -27.326);;animation:none"></path></g>
<g class="path" style="animation-duration:1s;animation-timing-function:linear;animation-delay:-0.18s;animation-iteration-count:infinite;animation-direction:normal;animation-fill-mode:forwards;animation-play-state:paused;animation-name:animate-db7etrqksv;animation-timeline:auto;animation-range-start:normal;animation-range-end:normal;transform-box:view-box;transform-origin:95.35px -3.01px;transform:matrix(1, 0, 0, 1, 0, 0);;animation:none"><path d="M376.37-7.07L376.37 54.65L371.29 54.65L365.43 44.85Q364.57 47.31 363.07 49.30Q361.56 51.29 359.59 52.72Q357.62 54.14 355.25 54.92Q352.89 55.70 350.27 55.70L350.27 55.70Q345.12 55.70 341.05 53.87Q336.99 52.03 334.18 48.85Q331.37 45.67 329.88 41.37Q328.40 37.07 328.40 32.15L328.40 32.15Q328.40 27.23 329.88 22.93Q331.37 18.63 334.18 15.47Q336.99 12.31 341.05 10.47Q345.12 8.63 350.27 8.63L350.27 8.63Q354.22 8.63 357.52 10.16Q360.82 11.68 363.16 14.92L363.16 14.92L363.16-7.07L376.37-7.07 zM363.09 32.15L363.09 32.15Q363.09 30.59 362.85 28.71Q362.62 26.84 362.11 24.92Q361.60 23.01 360.78 21.21Q359.96 19.42 358.77 18.01Q357.58 16.60 356 15.76Q354.41 14.92 352.38 14.92L352.38 14.92Q350.16 14.92 348.52 15.72Q346.88 16.52 345.70 17.87Q344.53 19.22 343.77 20.98Q343.01 22.74 342.58 24.65Q342.15 26.56 341.97 28.50Q341.80 30.43 341.80 32.15L341.80 32.15Q341.80 33.87 341.97 35.80Q342.15 37.74 342.58 39.65Q343.01 41.56 343.77 43.34Q344.53 45.12 345.70 46.47Q346.88 47.81 348.52 48.61Q350.16 49.42 352.38 49.42L352.38 49.42Q354.61 49.42 356.29 48.63Q357.97 47.85 359.16 46.51Q360.35 45.16 361.11 43.42Q361.88 41.68 362.30 39.75Q362.73 37.81 362.91 35.86Q363.09 33.91 363.09 32.15" transform="matrix(1,0,0,1,-257.0299987792969,-27.326000213623047)" style="fill:rgb(101, 150, 0);transform:matrix(1, 0, 0, 1, -257.03, -27.326);;animation:none"></path></g>
<g class="path" style="animation-duration:1s;animation-timing-function:linear;animation-delay:-0.12s;animation-iteration-count:infinite;animation-direction:normal;animation-fill-mode:forwards;animation-play-state:paused;animation-name:animate-db7etrqksv;animation-timeline:auto;animation-range-start:normal;animation-range-end:normal;transform-box:view-box;transform-origin:152.84px 4.67px;transform:matrix(1, 0, 0, 1, 0, 0);;animation:none"><path d="M435.04 31.99L435.04 31.99Q435.04 35.51 434.10 38.60Q433.16 41.68 431.50 44.30Q429.84 46.92 427.50 49.01Q425.16 51.10 422.36 52.54Q419.57 53.99 416.39 54.77Q413.20 55.55 409.84 55.55L409.84 55.55Q406.48 55.55 403.32 54.77Q400.16 53.99 397.36 52.54Q394.57 51.10 392.23 49.01Q389.88 46.92 388.22 44.30Q386.56 41.68 385.63 38.58Q384.69 35.47 384.69 31.99L384.69 31.99Q384.69 28.52 385.63 25.41Q386.56 22.31 388.22 19.69Q389.88 17.07 392.23 14.98Q394.57 12.89 397.36 11.45Q400.16 10 403.32 9.22Q406.48 8.44 409.84 8.44L409.84 8.44Q413.20 8.44 416.39 9.22Q419.57 10 422.36 11.45Q425.16 12.89 427.50 14.98Q429.84 17.07 431.50 19.69Q433.16 22.31 434.10 25.41Q435.04 28.52 435.04 31.99 zM421.60 31.99L421.60 31.99Q421.60 30.12 421.39 28.03Q421.17 25.94 420.66 23.93Q420.16 21.92 419.28 20.06Q418.40 18.20 417.11 16.82Q415.82 15.43 414.02 14.59Q412.23 13.75 409.84 13.75L409.84 13.75Q407.58 13.75 405.82 14.61Q404.06 15.47 402.75 16.90Q401.45 18.32 400.57 20.20Q399.69 22.07 399.14 24.08Q398.59 26.10 398.36 28.15Q398.13 30.20 398.13 31.99L398.13 31.99Q398.13 33.79 398.36 35.84Q398.59 37.89 399.14 39.92Q399.69 41.95 400.57 43.81Q401.45 45.67 402.75 47.09Q404.06 48.52 405.82 49.38Q407.58 50.24 409.84 50.24L409.84 50.24Q412.19 50.24 413.98 49.40Q415.78 48.56 417.09 47.15Q418.40 45.74 419.26 43.91Q420.12 42.07 420.64 40.04Q421.17 38.01 421.39 35.94Q421.60 33.87 421.60 31.99" transform="matrix(1,0,0,1,-257.0299987792969,-27.326000213623047)" style="fill:rgb(251, 69, 115);transform:matrix(1, 0, 0, 1, -257.03, -27.326);;animation:none"></path></g>
<g class="path" style="animation-duration:1s;animation-timing-function:linear;animation-delay:-0.06s;animation-iteration-count:infinite;animation-direction:normal;animation-fill-mode:forwards;animation-play-state:paused;animation-name:animate-db7etrqksv;animation-timeline:auto;animation-range-start:normal;animation-range-end:normal;transform-box:view-box;transform-origin:198.3px -3.54px;transform:matrix(1, 0, 0, 1, 0, 0);;animation:none"><path d="M459.22 14.77L459.22 54.65L445.98 54.65L445.98 14.77L437.77 14.77L437.77 9.53L445.98 9.53L445.98-7.07L459.22-7.07L459.22 9.53L472.89 9.53L472.89 14.77L459.22 14.77" transform="matrix(1,0,0,1,-257.0299987792969,-27.326000213623047)" style="fill:rgb(3, 126, 243);transform:matrix(1, 0, 0, 1, -257.03, -27.326);;animation:none"></path></g>
<g class="path" style="animation-duration:1s;animation-timing-function:linear;animation-delay:0s;animation-iteration-count:infinite;animation-direction:normal;animation-fill-mode:forwards;animation-play-state:paused;animation-name:animate-db7etrqksv;animation-timeline:auto;animation-range-start:normal;animation-range-end:normal;transform-box:view-box;transform-origin:240.39px 4.67px;transform:matrix(1, 0, 0, 1, 0, 0);;animation:none"><path d="M487.89 33.24L487.89 33.24Q490.31 33.79 492.73 34.10Q495.16 34.42 497.62 34.42L497.62 34.42Q500.20 34.42 502.40 33.93Q504.61 33.44 506.23 32.29Q507.85 31.13 508.79 29.22Q509.73 27.31 509.73 24.45L509.73 24.45Q509.73 22.15 509.10 20.24Q508.48 18.32 507.25 16.95Q506.02 15.59 504.22 14.83Q502.42 14.06 500.04 14.06L500.04 14.06Q497.81 14.06 496.04 14.88Q494.26 15.70 492.91 17.09Q491.56 18.48 490.61 20.31Q489.65 22.15 489.02 24.14Q488.40 26.13 488.13 28.17Q487.85 30.20 487.85 31.99L487.85 31.99Q487.85 32.31 487.85 32.62Q487.85 32.93 487.89 33.24 zM520.43 24.34L520.43 24.34Q520.43 27.11 519.53 29.28Q518.63 31.45 517.09 33.09Q515.55 34.73 513.52 35.86Q511.48 36.99 509.18 37.72Q506.88 38.44 504.43 38.75Q501.99 39.06 499.69 39.06L499.69 39.06Q496.76 39.06 493.91 38.65Q491.05 38.24 488.28 37.35L488.28 37.35Q488.71 39.92 489.65 42.25Q490.59 44.57 492.15 46.31Q493.71 48.05 496 49.06Q498.28 50.08 501.41 50.08L501.41 50.08Q503.48 50.08 505.35 49.45Q507.23 48.83 508.79 47.70Q510.35 46.56 511.54 45Q512.73 43.44 513.48 41.52L513.48 41.52L519.18 43.63Q517.89 46.72 515.64 48.97Q513.40 51.21 510.57 52.68Q507.73 54.14 504.55 54.85Q501.37 55.55 498.24 55.55L498.24 55.55Q493.09 55.55 488.71 53.81Q484.34 52.07 481.17 48.95Q478.01 45.82 476.21 41.49Q474.41 37.15 474.41 31.99L474.41 31.99Q474.41 26.84 476.21 22.50Q478.01 18.17 481.17 15.04Q484.34 11.92 488.71 10.18Q493.09 8.44 498.24 8.44L498.24 8.44Q500.74 8.44 503.36 8.79Q505.98 9.14 508.44 9.90Q510.90 10.67 513.09 11.88Q515.27 13.09 516.89 14.86Q518.52 16.64 519.47 18.99Q520.43 21.33 520.43 24.34" transform="matrix(1,0,0,1,-257.0299987792969,-27.326000213623047)" style="fill:rgb(248, 90, 64);transform:matrix(1, 0, 0, 1, -257.03, -27.326);;animation:none"></path></g></g>
<text dy="0.35em" fill="#037ef3" font-family="Aclonica" font-size="61" style="fill:rgb(3, 126, 243);opacity:0;;animation:none">Deseándote</text></g></g>
<STYLE type="text/css">@keyframes animate-db7etrqksv { 0.00% {animation-timing-function: cubic-bezier(0.33,0.00,0.67,0.00);transform: translate(0.00px,0.00px) rotate(0.00deg) scale(1.00, 1.00) skew(0deg, 0.00deg) ;opacity: 1.00;}50.00% {animation-timing-function: cubic-bezier(0.33,0.00,0.67,0.00);transform: translate(0.00px,0.00px) rotate(0.00deg) ;}100.00% {animation-timing-function: cubic-bezier(0.33,0.00,0.67,0.00);transform: translate(0.00px,0.00px) rotate(0.00deg) ;} }</STYLE><!-- [ldio] generated by https://loading.io --></svg>