<svg xmlns="http://www.w3.org/2000/svg" xmlns:xlink="http://www.w3.org/1999/xlink" viewBox="0 0 439 81" preserveAspectRatio="xMidYMid" width="439" height="81" style="display:block;shape-rendering:auto;background-position-x:0%;background-position-y:0%;background-size:auto;background-origin:padding-box;background-clip:border-box;background:scroll rgba(0, 0, 0, 0) none  repeat;width:439px;height:81px;;animation:none"><style type="text/css">.ld-text text {
    text-anchor: middle;
    dominant-baseline: middle;
    font-size: 61px;
    opacity: 0;
    user-select: none;
    pointer-events: none;
  }</style>


<g class="ld-text" style="transform-origin:219.5px 40.5px;transform:matrix(1, 0, 0, 1, 0, 0);;animation:none"><g transform="matrix(1,0,0,1,219.5,40.5)" style="transform:matrix(1, 0, 0, 1, 219.5, 40.5);;animation:none"><g transform="matrix(0.762499988079071,0,0,0.762499988079071,0,0)" style="transform:matrix(0.7625, 0, 0, 0.7625, 0, 0);;animation:none"><g class="path" style="animation-duration:1s;animation-timing-function:linear;animation-delay:-0.605s;animation-iteration-count:infinite;animation-direction:normal;animation-fill-mode:forwards;animation-play-state:paused;animation-name:animate-db7etrqksv;animation-timeline:auto;animation-range-start:normal;animation-range-end:normal;transform-box:view-box;transform-origin:-248.73px 2.14px;transform:matrix(1, 0, 0, 1, 0, 0);;animation:none"><path d="M50.94 4.47L50.94 49.59L37.73 49.59L37.73 44.20Q35.39 47.40 32.09 48.95Q28.79 50.49 24.84 50.49L24.84 50.49Q19.69 50.49 15.63 48.65Q11.56 46.82 8.75 43.63Q5.94 40.45 4.45 36.15Q2.97 31.86 2.97 26.93L2.97 26.93Q2.97 22.01 4.45 17.71Q5.94 13.42 8.75 10.23Q11.56 7.05 15.63 5.21Q19.69 3.38 24.84 3.38L24.84 3.38Q27.46 3.38 29.82 4.16Q32.19 4.94 34.16 6.37Q36.13 7.79 37.64 9.80Q39.14 11.82 40 14.28L40 14.28L45.86 4.47L50.94 4.47 zM37.66 26.93L37.66 26.93Q37.66 25.18 37.48 23.22Q37.30 21.27 36.88 19.36Q36.45 17.44 35.68 15.70Q34.92 13.96 33.73 12.62Q32.54 11.27 30.86 10.49Q29.18 9.71 26.95 9.71L26.95 9.71Q24.73 9.71 23.09 10.51Q21.45 11.31 20.27 12.66Q19.10 14 18.34 15.76Q17.58 17.52 17.15 19.43Q16.72 21.35 16.54 23.28Q16.37 25.21 16.37 26.93L16.37 26.93Q16.37 28.65 16.54 30.61Q16.72 32.56 17.15 34.47Q17.58 36.39 18.34 38.14Q19.10 39.90 20.27 41.25Q21.45 42.60 23.09 43.40Q24.73 44.20 26.95 44.20L26.95 44.20Q28.98 44.20 30.57 43.36Q32.15 42.52 33.34 41.11Q34.53 39.71 35.35 37.91Q36.17 36.11 36.68 34.20Q37.19 32.29 37.42 30.39Q37.66 28.50 37.66 26.93" transform="matrix(1,0,0,1,-275.68499755859375,-24.797000885009766)" style="fill:rgb(3, 126, 243);transform:matrix(1, 0, 0, 1, -275.685, -24.797);;animation:none"></path></g>
<g class="path" style="animation-duration:1s;animation-timing-function:linear;animation-delay:-0.55s;animation-iteration-count:infinite;animation-direction:normal;animation-fill-mode:forwards;animation-play-state:paused;animation-name:animate-db7etrqksv;animation-timeline:auto;animation-range-start:normal;animation-range-end:normal;transform-box:view-box;transform-origin:-192.97px 2.76px;transform:matrix(1, 0, 0, 1, 0, 0);;animation:none"><path d="M59.65 30.29L59.65 30.29Q59.65 27.21 60.18 23.89Q60.70 20.57 61.70 17.25Q62.70 13.93 64.10 10.68Q65.51 7.44 67.27 4.47L67.27 4.47L76.91 4.47Q75.94 7.40 75.18 10.59Q74.41 13.77 73.89 16.95Q73.36 20.14 73.07 23.18Q72.77 26.23 72.77 28.85L72.77 28.85Q72.77 30.37 72.91 32.11Q73.05 33.85 73.40 35.59Q73.75 37.32 74.39 38.93Q75.04 40.53 76.05 41.76Q77.07 42.99 78.54 43.71Q80 44.43 81.99 44.43L81.99 44.43Q83.95 44.43 85.49 43.55Q87.03 42.68 88.20 41.25Q89.38 39.82 90.20 37.99Q91.02 36.15 91.54 34.22Q92.07 32.29 92.32 30.43Q92.58 28.57 92.58 27.09L92.58 27.09L92.58 4.47L105.78 4.47L105.78 49.59L100.70 49.59L94.65 39.08Q93.52 41.70 91.89 43.83Q90.27 45.96 88.20 47.48Q86.13 49 83.61 49.82Q81.09 50.64 78.16 50.64L78.16 50.64Q73.48 50.64 70 49.12Q66.52 47.60 64.22 44.90Q61.91 42.21 60.78 38.48Q59.65 34.75 59.65 30.29" transform="matrix(1,0,0,1,-275.68499755859375,-24.797000885009766)" style="fill:rgb(248, 90, 64);transform:matrix(1, 0, 0, 1, -275.685, -24.797);;animation:none"></path></g>
<g class="path" style="animation-duration:1s;animation-timing-function:linear;animation-delay:-0.495s;animation-iteration-count:infinite;animation-direction:normal;animation-fill-mode:forwards;animation-play-state:paused;animation-name:animate-db7etrqksv;animation-timeline:auto;animation-range-start:normal;animation-range-end:normal;transform-box:view-box;transform-origin:-137.44px 12.1px;transform:matrix(1, 0, 0, 1, 0, 0);;animation:none"><path d="M162.23 4.47L162.23 44.16Q162.23 49.55 160.63 54.32Q159.02 59.08 155.98 62.66Q152.93 66.23 148.50 68.32Q144.06 70.41 138.40 70.41L138.40 70.41Q135.27 70.41 132.09 69.71Q128.91 69 126.07 67.54Q123.24 66.07 121 63.83Q118.75 61.58 117.46 58.54L117.46 58.54L123.16 56.39Q123.91 58.30 125.10 59.90Q126.29 61.50 127.85 62.66Q129.41 63.81 131.29 64.45Q133.16 65.10 135.23 65.10L135.23 65.10Q139.14 65.10 141.78 63.50Q144.41 61.89 146.02 59.32Q147.62 56.74 148.32 53.48Q149.02 50.22 149.02 46.86L149.02 46.86L149.02 44.20Q146.68 47.40 143.38 48.95Q140.08 50.49 136.13 50.49L136.13 50.49Q130.98 50.49 126.91 48.65Q122.85 46.82 120.04 43.63Q117.23 40.45 115.74 36.15Q114.26 31.86 114.26 26.93L114.26 26.93Q114.26 22.01 115.74 17.71Q117.23 13.42 120.04 10.23Q122.85 7.05 126.91 5.21Q130.98 3.38 136.13 3.38L136.13 3.38Q138.75 3.38 141.11 4.16Q143.48 4.94 145.45 6.37Q147.42 7.79 148.93 9.80Q150.43 11.82 151.29 14.28L151.29 14.28L157.15 4.47L162.23 4.47 zM148.95 26.93L148.95 26.93Q148.95 25.18 148.77 23.22Q148.59 21.27 148.16 19.36Q147.73 17.44 146.97 15.70Q146.21 13.96 145.02 12.62Q143.83 11.27 142.15 10.49Q140.47 9.71 138.24 9.71L138.24 9.71Q136.02 9.71 134.38 10.51Q132.73 11.31 131.56 12.66Q130.39 14 129.63 15.76Q128.87 17.52 128.44 19.43Q128.01 21.35 127.83 23.28Q127.66 25.21 127.66 26.93L127.66 26.93Q127.66 28.65 127.83 30.61Q128.01 32.56 128.44 34.47Q128.87 36.39 129.63 38.14Q130.39 39.90 131.56 41.25Q132.73 42.60 134.38 43.40Q136.02 44.20 138.24 44.20L138.24 44.20Q140.27 44.20 141.86 43.36Q143.44 42.52 144.63 41.11Q145.82 39.71 146.64 37.91Q147.46 36.11 147.97 34.20Q148.48 32.29 148.71 30.39Q148.95 28.50 148.95 26.93" transform="matrix(1,0,0,1,-275.68499755859375,-24.797000885009766)" style="fill:rgb(0, 181, 135);transform:matrix(1, 0, 0, 1, -275.685, -24.797);;animation:none"></path></g>
<g class="path" style="animation-duration:1s;animation-timing-function:linear;animation-delay:-0.44s;animation-iteration-count:infinite;animation-direction:normal;animation-fill-mode:forwards;animation-play-state:paused;animation-name:animate-db7etrqksv;animation-timeline:auto;animation-range-start:normal;animation-range-end:normal;transform-box:view-box;transform-origin:-81.68px 2.76px;transform:matrix(1, 0, 0, 1, 0, 0);;animation:none"><path d="M170.94 30.29L170.94 30.29Q170.94 27.21 171.46 23.89Q171.99 20.57 172.99 17.25Q173.98 13.93 175.39 10.68Q176.80 7.44 178.55 4.47L178.55 4.47L188.20 4.47Q187.23 7.40 186.46 10.59Q185.70 13.77 185.18 16.95Q184.65 20.14 184.36 23.18Q184.06 26.23 184.06 28.85L184.06 28.85Q184.06 30.37 184.20 32.11Q184.34 33.85 184.69 35.59Q185.04 37.32 185.68 38.93Q186.33 40.53 187.34 41.76Q188.36 42.99 189.82 43.71Q191.29 44.43 193.28 44.43L193.28 44.43Q195.23 44.43 196.78 43.55Q198.32 42.68 199.49 41.25Q200.66 39.82 201.48 37.99Q202.30 36.15 202.83 34.22Q203.36 32.29 203.61 30.43Q203.87 28.57 203.87 27.09L203.87 27.09L203.87 4.47L217.07 4.47L217.07 49.59L211.99 49.59L205.94 39.08Q204.80 41.70 203.18 43.83Q201.56 45.96 199.49 47.48Q197.42 49 194.90 49.82Q192.38 50.64 189.45 50.64L189.45 50.64Q184.77 50.64 181.29 49.12Q177.81 47.60 175.51 44.90Q173.20 42.21 172.07 38.48Q170.94 34.75 170.94 30.29" transform="matrix(1,0,0,1,-275.68499755859375,-24.797000885009766)" style="fill:rgb(10, 142, 160);transform:matrix(1, 0, 0, 1, -275.685, -24.797);;animation:none"></path></g>
<g class="path" style="animation-duration:1s;animation-timing-function:linear;animation-delay:-0.385s;animation-iteration-count:infinite;animation-direction:normal;animation-fill-mode:forwards;animation-play-state:paused;animation-name:animate-db7etrqksv;animation-timeline:auto;animation-range-start:normal;animation-range-end:normal;transform-box:view-box;transform-origin:-28.41px 1.69px;transform:matrix(1, 0, 0, 1, 0, 0);;animation:none"><path d="M266.45 8.46L266.45 8.46L259.02 20.76Q258.55 19.20 257.81 17.25Q257.07 15.29 255.98 13.59Q254.88 11.89 253.36 10.74Q251.84 9.59 249.84 9.59L249.84 9.59Q248.01 9.59 246.66 10.53Q245.31 11.46 244.38 12.97Q243.44 14.47 242.83 16.37Q242.23 18.26 241.89 20.20Q241.56 22.13 241.45 23.91Q241.33 25.68 241.33 26.97L241.33 26.97L241.33 49.59L228.09 49.59L228.09 4.47L233.16 4.47L238.52 14.98Q239.61 12.44 241.02 10.31Q242.42 8.18 244.26 6.64Q246.09 5.10 248.42 4.24Q250.74 3.38 253.67 3.38L253.67 3.38Q255.20 3.38 257.07 3.63Q258.95 3.89 260.74 4.49Q262.54 5.10 264.06 6.07Q265.59 7.05 266.45 8.46" transform="matrix(1,0,0,1,-275.68499755859375,-24.797000885009766)" style="fill:rgb(244, 137, 36);transform:matrix(1, 0, 0, 1, -275.685, -24.797);;animation:none"></path></g>
<g class="path" style="animation-duration:1s;animation-timing-function:linear;animation-delay:-0.33s;animation-iteration-count:infinite;animation-direction:normal;animation-fill-mode:forwards;animation-play-state:paused;animation-name:animate-db7etrqksv;animation-timeline:auto;animation-range-start:normal;animation-range-end:normal;transform-box:view-box;transform-origin:16.82px 2.14px;transform:matrix(1, 0, 0, 1, 0, 0);;animation:none"><path d="M316.48 4.47L316.48 49.59L303.28 49.59L303.28 44.20Q300.94 47.40 297.64 48.95Q294.34 50.49 290.39 50.49L290.39 50.49Q285.23 50.49 281.17 48.65Q277.11 46.82 274.30 43.63Q271.48 40.45 270 36.15Q268.52 31.86 268.52 26.93L268.52 26.93Q268.52 22.01 270 17.71Q271.48 13.42 274.30 10.23Q277.11 7.05 281.17 5.21Q285.23 3.38 290.39 3.38L290.39 3.38Q293.01 3.38 295.37 4.16Q297.73 4.94 299.71 6.37Q301.68 7.79 303.18 9.80Q304.69 11.82 305.55 14.28L305.55 14.28L311.41 4.47L316.48 4.47 zM303.20 26.93L303.20 26.93Q303.20 25.18 303.03 23.22Q302.85 21.27 302.42 19.36Q301.99 17.44 301.23 15.70Q300.47 13.96 299.28 12.62Q298.09 11.27 296.41 10.49Q294.73 9.71 292.50 9.71L292.50 9.71Q290.27 9.71 288.63 10.51Q286.99 11.31 285.82 12.66Q284.65 14 283.89 15.76Q283.13 17.52 282.70 19.43Q282.27 21.35 282.09 23.28Q281.91 25.21 281.91 26.93L281.91 26.93Q281.91 28.65 282.09 30.61Q282.27 32.56 282.70 34.47Q283.13 36.39 283.89 38.14Q284.65 39.90 285.82 41.25Q286.99 42.60 288.63 43.40Q290.27 44.20 292.50 44.20L292.50 44.20Q294.53 44.20 296.11 43.36Q297.70 42.52 298.89 41.11Q300.08 39.71 300.90 37.91Q301.72 36.11 302.23 34.20Q302.73 32.29 302.97 30.39Q303.20 28.50 303.20 26.93" transform="matrix(1,0,0,1,-275.68499755859375,-24.797000885009766)" style="fill:rgb(190, 137, 13);transform:matrix(1, 0, 0, 1, -275.685, -24.797);;animation:none"></path></g>
<g class="path" style="animation-duration:1s;animation-timing-function:linear;animation-delay:-0.275s;animation-iteration-count:infinite;animation-direction:normal;animation-fill-mode:forwards;animation-play-state:paused;animation-name:animate-db7etrqksv;animation-timeline:auto;animation-range-start:normal;animation-range-end:normal;transform-box:view-box;transform-origin:74.88px 6.49px;transform:matrix(1, 0, 0, 1, 0, 0);;animation:none"><path d="M373.63 23.73L373.63 23.73Q373.63 28.30 372.52 33.26Q371.41 38.22 369.41 42.99Q367.42 47.75 364.65 51.95Q361.88 56.15 358.55 59.20L358.55 59.20L353.59 56.50Q354.65 54.55 355.59 52.13Q356.52 49.71 357.29 46.99Q358.05 44.28 358.65 41.39Q359.26 38.50 359.67 35.66Q360.08 32.83 360.29 30.16Q360.51 27.48 360.51 25.18L360.51 25.18Q360.51 23.65 360.39 21.91Q360.27 20.18 359.90 18.44Q359.53 16.70 358.91 15.10Q358.28 13.50 357.25 12.29Q356.21 11.07 354.75 10.33Q353.28 9.59 351.29 9.59L351.29 9.59Q349.34 9.59 347.81 10.47Q346.29 11.35 345.12 12.77Q343.95 14.20 343.11 16.04Q342.27 17.87 341.74 19.80Q341.21 21.74 340.98 23.61Q340.74 25.49 340.74 26.97L340.74 26.97L340.74 49.59L327.50 49.59L327.50 4.47L332.58 4.47L338.63 14.98Q339.73 12.36 341.37 10.21Q343.01 8.07 345.08 6.54Q347.15 5.02 349.67 4.20Q352.19 3.38 355.12 3.38L355.12 3.38Q359.80 3.38 363.28 4.90Q366.76 6.43 369.06 9.14Q371.37 11.86 372.50 15.59Q373.63 19.32 373.63 23.73" transform="matrix(1,0,0,1,-275.68499755859375,-24.797000885009766)" style="fill:rgb(255, 86, 255);transform:matrix(1, 0, 0, 1, -275.685, -24.797);;animation:none"></path></g>
<g class="path" style="animation-duration:1s;animation-timing-function:linear;animation-delay:-0.22s;animation-iteration-count:infinite;animation-direction:normal;animation-fill-mode:forwards;animation-play-state:paused;animation-name:animate-db7etrqksv;animation-timeline:auto;animation-range-start:normal;animation-range-end:normal;transform-box:view-box;transform-origin:128.14px -5.54px;transform:matrix(1, 0, 0, 1, 0, 0);;animation:none"><path d="M427.81-12.13L427.81 49.59L422.73 49.59L416.88 39.79Q416.02 42.25 414.51 44.24Q413.01 46.23 411.04 47.66Q409.06 49.08 406.70 49.86Q404.34 50.64 401.72 50.64L401.72 50.64Q396.56 50.64 392.50 48.81Q388.44 46.97 385.63 43.79Q382.81 40.61 381.33 36.31Q379.84 32.01 379.84 27.09L379.84 27.09Q379.84 22.17 381.33 17.87Q382.81 13.57 385.63 10.41Q388.44 7.25 392.50 5.41Q396.56 3.57 401.72 3.57L401.72 3.57Q405.66 3.57 408.96 5.10Q412.27 6.62 414.61 9.86L414.61 9.86L414.61-12.13L427.81-12.13 zM414.53 27.09L414.53 27.09Q414.53 25.53 414.30 23.65Q414.06 21.78 413.55 19.86Q413.05 17.95 412.23 16.15Q411.41 14.36 410.21 12.95Q409.02 11.54 407.44 10.70Q405.86 9.86 403.83 9.86L403.83 9.86Q401.60 9.86 399.96 10.66Q398.32 11.46 397.15 12.81Q395.98 14.16 395.21 15.92Q394.45 17.68 394.02 19.59Q393.59 21.50 393.42 23.44Q393.24 25.37 393.24 27.09L393.24 27.09Q393.24 28.81 393.42 30.74Q393.59 32.68 394.02 34.59Q394.45 36.50 395.21 38.28Q395.98 40.06 397.15 41.41Q398.32 42.75 399.96 43.55Q401.60 44.36 403.83 44.36L403.83 44.36Q406.05 44.36 407.73 43.57Q409.41 42.79 410.61 41.45Q411.80 40.10 412.56 38.36Q413.32 36.62 413.75 34.69Q414.18 32.75 414.36 30.80Q414.53 28.85 414.53 27.09" transform="matrix(1,0,0,1,-275.68499755859375,-24.797000885009766)" style="fill:rgb(101, 150, 0);transform:matrix(1, 0, 0, 1, -275.685, -24.797);;animation:none"></path></g>
<g class="path" style="animation-duration:1s;animation-timing-function:linear;animation-delay:-0.165s;animation-iteration-count:infinite;animation-direction:normal;animation-fill-mode:forwards;animation-play-state:paused;animation-name:animate-db7etrqksv;animation-timeline:auto;animation-range-start:normal;animation-range-end:normal;transform-box:view-box;transform-origin:185.62px 2.14px;transform:matrix(1, 0, 0, 1, 0, 0);;animation:none"><path d="M486.48 26.93L486.48 26.93Q486.48 30.45 485.55 33.54Q484.61 36.62 482.95 39.24Q481.29 41.86 478.95 43.95Q476.60 46.04 473.81 47.48Q471.02 48.93 467.83 49.71Q464.65 50.49 461.29 50.49L461.29 50.49Q457.93 50.49 454.77 49.71Q451.60 48.93 448.81 47.48Q446.02 46.04 443.67 43.95Q441.33 41.86 439.67 39.24Q438.01 36.62 437.07 33.52Q436.13 30.41 436.13 26.93L436.13 26.93Q436.13 23.46 437.07 20.35Q438.01 17.25 439.67 14.63Q441.33 12.01 443.67 9.92Q446.02 7.83 448.81 6.39Q451.60 4.94 454.77 4.16Q457.93 3.38 461.29 3.38L461.29 3.38Q464.65 3.38 467.83 4.16Q471.02 4.94 473.81 6.39Q476.60 7.83 478.95 9.92Q481.29 12.01 482.95 14.63Q484.61 17.25 485.55 20.35Q486.48 23.46 486.48 26.93 zM473.05 26.93L473.05 26.93Q473.05 25.06 472.83 22.97Q472.62 20.88 472.11 18.87Q471.60 16.86 470.72 15Q469.84 13.14 468.55 11.76Q467.27 10.37 465.47 9.53Q463.67 8.69 461.29 8.69L461.29 8.69Q459.02 8.69 457.27 9.55Q455.51 10.41 454.20 11.84Q452.89 13.26 452.01 15.14Q451.13 17.01 450.59 19.02Q450.04 21.04 449.80 23.09Q449.57 25.14 449.57 26.93L449.57 26.93Q449.57 28.73 449.80 30.78Q450.04 32.83 450.59 34.86Q451.13 36.89 452.01 38.75Q452.89 40.61 454.20 42.03Q455.51 43.46 457.27 44.32Q459.02 45.18 461.29 45.18L461.29 45.18Q463.63 45.18 465.43 44.34Q467.23 43.50 468.54 42.09Q469.84 40.68 470.70 38.85Q471.56 37.01 472.09 34.98Q472.62 32.95 472.83 30.88Q473.05 28.81 473.05 26.93" transform="matrix(1,0,0,1,-275.68499755859375,-24.797000885009766)" style="fill:rgb(251, 69, 115);transform:matrix(1, 0, 0, 1, -275.685, -24.797);;animation:none"></path></g>
<g class="path" style="animation-duration:1s;animation-timing-function:linear;animation-delay:-0.11s;animation-iteration-count:infinite;animation-direction:normal;animation-fill-mode:forwards;animation-play-state:paused;animation-name:animate-db7etrqksv;animation-timeline:auto;animation-range-start:normal;animation-range-end:normal;transform-box:view-box;transform-origin:236.17px 2.23px;transform:matrix(1, 0, 0, 1, 0, 0);;animation:none"><path d="M534.88 4.47L517.11 49.59L505.23 49.59L488.83 4.47L502.03 4.47L514.06 40.41L525.74 4.47L534.88 4.47" transform="matrix(1,0,0,1,-275.68499755859375,-24.797000885009766)" style="fill:rgb(3, 126, 243);transform:matrix(1, 0, 0, 1, -275.685, -24.797);;animation:none"></path></g>
<g class="path" style="animation-duration:1s;animation-timing-function:linear;animation-delay:-0.055s;animation-iteration-count:infinite;animation-direction:normal;animation-fill-mode:forwards;animation-play-state:paused;animation-name:animate-db7etrqksv;animation-timeline:auto;animation-range-start:normal;animation-range-end:normal;transform-box:view-box;transform-origin:271.45px -31.2px;transform:matrix(1, 0, 0, 1, 0, 0);;animation:none"><path d="M554.34-6.43L554.34-6.43Q554.34-4.94 553.77-3.61Q553.20-2.29 552.23-1.31Q551.25-0.33 549.92 0.23Q548.59 0.80 547.11 0.80L547.11 0.80Q545.63 0.80 544.32 0.23Q543.01-0.33 542.03-1.31Q541.05-2.29 540.49-3.61Q539.92-4.94 539.92-6.43L539.92-6.43Q539.92-7.91 540.49-9.22Q541.05-10.53 542.03-11.50Q543.01-12.48 544.32-13.05Q545.63-13.61 547.11-13.61L547.11-13.61Q548.59-13.61 549.92-13.05Q551.25-12.48 552.23-11.50Q553.20-10.53 553.77-9.22Q554.34-7.91 554.34-6.43" transform="matrix(1,0,0,1,-275.68499755859375,-24.797000885009766)" style="fill:rgb(248, 90, 64);transform:matrix(1, 0, 0, 1, -275.685, -24.797);;animation:none"></path></g>
<g class="path" style="animation-duration:1s;animation-timing-function:linear;animation-delay:0s;animation-iteration-count:infinite;animation-direction:normal;animation-fill-mode:forwards;animation-play-state:paused;animation-name:animate-db7etrqksv;animation-timeline:auto;animation-range-start:normal;animation-range-end:normal;transform-box:view-box;transform-origin:271.45px 2.25px;transform:matrix(1, 0, 0, 1, 0, 0);;animation:none"><path d="M553.75 4.51L553.75 49.59L540.51 49.59L540.51 4.51L553.75 4.51" transform="matrix(1,0,0,1,-275.68499755859375,-24.797000885009766)" style="fill:rgb(0, 181, 135);transform:matrix(1, 0, 0, 1, -275.685, -24.797);;animation:none"></path></g></g>
<text dy="0.35em" fill="#037ef3" font-family="Aclonica" font-size="61" style="fill:rgb(3, 126, 243);opacity:0;;animation:none">augurandovi</text></g></g>
<STYLE type="text/css">@keyframes animate-db7etrqksv { 0.00% {animation-timing-function: cubic-bezier(0.33,0.00,0.67,0.00);transform: translate(0.00px,0.00px) rotate(0.00deg) scale(1.00, 1.00) skew(0deg, 0.00deg) ;opacity: 1.00;}50.00% {animation-timing-function: cubic-bezier(0.33,0.00,0.67,0.00);transform: translate(0.00px,0.00px) rotate(0.00deg) ;}100.00% {animation-timing-function: cubic-bezier(0.33,0.00,0.67,0.00);transform: translate(0.00px,0.00px) rotate(0.00deg) ;} }</STYLE><!-- [ldio] generated by https://loading.io --></svg>